<?xml version="1.0" encoding="utf-8" standalone="no"?>
<!DOCTYPE svg PUBLIC "-//W3C//DTD SVG 1.1//EN"
  "http://www.w3.org/Graphics/SVG/1.1/DTD/svg11.dtd">
<svg xmlns:xlink="http://www.w3.org/1999/xlink" width="411.285625pt" height="325.986375pt" viewBox="0 0 411.285625 325.986375" xmlns="http://www.w3.org/2000/svg" version="1.1">
 <metadata>
  <rdf:RDF xmlns:dc="http://purl.org/dc/elements/1.1/" xmlns:cc="http://creativecommons.org/ns#" xmlns:rdf="http://www.w3.org/1999/02/22-rdf-syntax-ns#">
   <cc:Work>
    <dc:type rdf:resource="http://purl.org/dc/dcmitype/StillImage"/>
    <dc:date>2026-02-17T05:03:21.889424</dc:date>
    <dc:format>image/svg+xml</dc:format>
    <dc:creator>
     <cc:Agent>
      <dc:title>Matplotlib v3.10.8, https://matplotlib.org/</dc:title>
     </cc:Agent>
    </dc:creator>
   </cc:Work>
  </rdf:RDF>
 </metadata>
 <defs>
  <style type="text/css">*{stroke-linejoin: round; stroke-linecap: butt}</style>
 </defs>
 <g id="figure_1">
  <g id="patch_1">
   <path d="M 0 325.986375 
L 411.285625 325.986375 
L 411.285625 0 
L 0 0 
z
" style="fill: #fde2d2"/>
  </g>
  <g id="axes_1">
   <g id="patch_2">
    <path d="M 46.965625 288.430125 
L 404.085625 288.430125 
L 404.085625 22.318125 
L 46.965625 22.318125 
z
" style="fill: #fdd3c5"/>
   </g>
   <g id="PathCollection_1">
    <defs>
     <path id="m956597d8c9" d="M 0 3 
C 0.795609 3 1.55874 2.683901 2.12132 2.12132 
C 2.683901 1.55874 3 0.795609 3 0 
C 3 -0.795609 2.683901 -1.55874 2.12132 -2.12132 
C 1.55874 -2.683901 0.795609 -3 0 -3 
C -0.795609 -3 -1.55874 -2.683901 -2.12132 -2.12132 
C -2.683901 -1.55874 -3 -0.795609 -3 0 
C -3 0.795609 -2.683901 1.55874 -2.12132 2.12132 
C -1.55874 2.683901 -0.795609 3 0 3 
z
" style="stroke: #b7573a"/>
    </defs>
    <g clip-path="url(#p4fe8f35799)">
     <use xlink:href="#m956597d8c9" x="198.47108" y="193.020968" style="fill: #b7573a; stroke: #b7573a"/>
     <use xlink:href="#m956597d8c9" x="329.234716" y="96.925182" style="fill: #b7573a; stroke: #b7573a"/>
     <use xlink:href="#m956597d8c9" x="221.016534" y="149.92425" style="fill: #b7573a; stroke: #b7573a"/>
     <use xlink:href="#m956597d8c9" x="239.052898" y="138.926909" style="fill: #b7573a; stroke: #b7573a"/>
     <use xlink:href="#m956597d8c9" x="284.143807" y="115.844403" style="fill: #b7573a; stroke: #b7573a"/>
     <use xlink:href="#m956597d8c9" x="193.961989" y="157.455768" style="fill: #b7573a; stroke: #b7573a"/>
     <use xlink:href="#m956597d8c9" x="338.252898" y="61.855099" style="fill: #b7573a; stroke: #b7573a"/>
     <use xlink:href="#m956597d8c9" x="225.525625" y="143.98284" style="fill: #b7573a; stroke: #b7573a"/>
     <use xlink:href="#m956597d8c9" x="171.416534" y="227.888705" style="fill: #b7573a; stroke: #b7573a"/>
     <use xlink:href="#m956597d8c9" x="351.78017" y="76.415853" style="fill: #b7573a; stroke: #b7573a"/>
     <use xlink:href="#m956597d8c9" x="329.234716" y="82.462018" style="fill: #b7573a; stroke: #b7573a"/>
     <use xlink:href="#m956597d8c9" x="189.452898" y="187.867447" style="fill: #b7573a; stroke: #b7573a"/>
     <use xlink:href="#m956597d8c9" x="311.198352" y="106.632351" style="fill: #b7573a; stroke: #b7573a"/>
     <use xlink:href="#m956597d8c9" x="243.561989" y="167.260528" style="fill: #b7573a; stroke: #b7573a"/>
     <use xlink:href="#m956597d8c9" x="239.052898" y="141.109725" style="fill: #b7573a; stroke: #b7573a"/>
     <use xlink:href="#m956597d8c9" x="266.107443" y="142.09996" style="fill: #b7573a; stroke: #b7573a"/>
     <use xlink:href="#m956597d8c9" x="320.216534" y="85.335133" style="fill: #b7573a; stroke: #b7573a"/>
     <use xlink:href="#m956597d8c9" x="297.67108" y="97.120363" style="fill: #b7573a; stroke: #b7573a"/>
     <use xlink:href="#m956597d8c9" x="239.052898" y="138.626973" style="fill: #b7573a; stroke: #b7573a"/>
     <use xlink:href="#m956597d8c9" x="252.58017" y="132.288036" style="fill: #b7573a; stroke: #b7573a"/>
     <use xlink:href="#m956597d8c9" x="320.216534" y="85.035197" style="fill: #b7573a; stroke: #b7573a"/>
     <use xlink:href="#m956597d8c9" x="221.016534" y="126.541807" style="fill: #b7573a; stroke: #b7573a"/>
     <use xlink:href="#m956597d8c9" x="211.998352" y="137.839084" style="fill: #b7573a; stroke: #b7573a"/>
     <use xlink:href="#m956597d8c9" x="284.143807" y="137.441557" style="fill: #b7573a; stroke: #b7573a"/>
     <use xlink:href="#m956597d8c9" x="266.107443" y="124.268565" style="fill: #b7573a; stroke: #b7573a"/>
     <use xlink:href="#m956597d8c9" x="338.252898" y="80.579139" style="fill: #b7573a; stroke: #b7573a"/>
     <use xlink:href="#m956597d8c9" x="297.67108" y="113.173634" style="fill: #b7573a; stroke: #b7573a"/>
     <use xlink:href="#m956597d8c9" x="234.543807" y="145.96331" style="fill: #b7573a; stroke: #b7573a"/>
     <use xlink:href="#m956597d8c9" x="333.743807" y="100.59335" style="fill: #b7573a; stroke: #b7573a"/>
     <use xlink:href="#m956597d8c9" x="315.707443" y="96.722836" style="fill: #b7573a; stroke: #b7573a"/>
     <use xlink:href="#m956597d8c9" x="387.852898" y="55.216226" style="fill: #b7573a; stroke: #b7573a"/>
     <use xlink:href="#m956597d8c9" x="211.998352" y="149.624314" style="fill: #b7573a; stroke: #b7573a"/>
     <use xlink:href="#m956597d8c9" x="184.943807" y="204.408671" style="fill: #b7573a; stroke: #b7573a"/>
     <use xlink:href="#m956597d8c9" x="207.489261" y="156.068006" style="fill: #b7573a; stroke: #b7573a"/>
     <use xlink:href="#m956597d8c9" x="202.98017" y="159.436238" style="fill: #b7573a; stroke: #b7573a"/>
     <use xlink:href="#m956597d8c9" x="257.089261" y="141.800024" style="fill: #b7573a; stroke: #b7573a"/>
     <use xlink:href="#m956597d8c9" x="356.289261" y="57.196696" style="fill: #b7573a; stroke: #b7573a"/>
     <use xlink:href="#m956597d8c9" x="121.816534" y="206.096369" style="fill: #b7573a; stroke: #b7573a"/>
     <use xlink:href="#m956597d8c9" x="383.343807" y="40.355535" style="fill: #b7573a; stroke: #b7573a"/>
     <use xlink:href="#m956597d8c9" x="234.543807" y="128.724623" style="fill: #b7573a; stroke: #b7573a"/>
     <use xlink:href="#m956597d8c9" x="270.616534" y="109.805402" style="fill: #b7573a; stroke: #b7573a"/>
     <use xlink:href="#m956597d8c9" x="180.434716" y="195.496556" style="fill: #b7573a; stroke: #b7573a"/>
     <use xlink:href="#m956597d8c9" x="329.234716" y="64.135505" style="fill: #b7573a; stroke: #b7573a"/>
     <use xlink:href="#m956597d8c9" x="284.143807" y="115.844403" style="fill: #b7573a; stroke: #b7573a"/>
     <use xlink:href="#m956597d8c9" x="270.616534" y="116.834638" style="fill: #b7573a; stroke: #b7573a"/>
     <use xlink:href="#m956597d8c9" x="320.216534" y="67.203801" style="fill: #b7573a; stroke: #b7573a"/>
     <use xlink:href="#m956597d8c9" x="216.507443" y="169.143407" style="fill: #b7573a; stroke: #b7573a"/>
     <use xlink:href="#m956597d8c9" x="144.361989" y="217.588827" style="fill: #b7573a; stroke: #b7573a"/>
     <use xlink:href="#m956597d8c9" x="351.78017" y="76.123081" style="fill: #b7573a; stroke: #b7573a"/>
     <use xlink:href="#m956597d8c9" x="171.416534" y="187.37233" style="fill: #b7573a; stroke: #b7573a"/>
     <use xlink:href="#m956597d8c9" x="248.07108" y="122.580867" style="fill: #b7573a; stroke: #b7573a"/>
     <use xlink:href="#m956597d8c9" x="198.47108" y="172.511639" style="fill: #b7573a; stroke: #b7573a"/>
     <use xlink:href="#m956597d8c9" x="239.052898" y="138.829319" style="fill: #b7573a; stroke: #b7573a"/>
     <use xlink:href="#m956597d8c9" x="266.107443" y="143.780494" style="fill: #b7573a; stroke: #b7573a"/>
     <use xlink:href="#m956597d8c9" x="338.252898" y="102.469065" style="fill: #b7573a; stroke: #b7573a"/>
     <use xlink:href="#m956597d8c9" x="103.78017" y="230.071521" style="fill: #b7573a; stroke: #b7573a"/>
     <use xlink:href="#m956597d8c9" x="279.634716" y="97.61548" style="fill: #b7573a; stroke: #b7573a"/>
     <use xlink:href="#m956597d8c9" x="234.543807" y="124.366156" style="fill: #b7573a; stroke: #b7573a"/>
     <use xlink:href="#m956597d8c9" x="338.252898" y="71.067151" style="fill: #b7573a; stroke: #b7573a"/>
     <use xlink:href="#m956597d8c9" x="180.434716" y="197.177089" style="fill: #b7573a; stroke: #b7573a"/>
     <use xlink:href="#m956597d8c9" x="293.161989" y="104.351944" style="fill: #b7573a; stroke: #b7573a"/>
     <use xlink:href="#m956597d8c9" x="347.27108" y="56.799169" style="fill: #b7573a; stroke: #b7573a"/>
     <use xlink:href="#m956597d8c9" x="139.852898" y="220.162006" style="fill: #b7573a; stroke: #b7573a"/>
     <use xlink:href="#m956597d8c9" x="221.016534" y="169.938461" style="fill: #b7573a; stroke: #b7573a"/>
     <use xlink:href="#m956597d8c9" x="248.07108" y="146.556018" style="fill: #b7573a; stroke: #b7573a"/>
     <use xlink:href="#m956597d8c9" x="193.961989" y="185.789386" style="fill: #b7573a; stroke: #b7573a"/>
     <use xlink:href="#m956597d8c9" x="207.489261" y="168.055582" style="fill: #b7573a; stroke: #b7573a"/>
     <use xlink:href="#m956597d8c9" x="315.707443" y="106.53476" style="fill: #b7573a; stroke: #b7573a"/>
     <use xlink:href="#m956597d8c9" x="302.18017" y="121.493041" style="fill: #b7573a; stroke: #b7573a"/>
     <use xlink:href="#m956597d8c9" x="266.107443" y="131.402556" style="fill: #b7573a; stroke: #b7573a"/>
     <use xlink:href="#m956597d8c9" x="288.652898" y="150.516958" style="fill: #b7573a; stroke: #b7573a"/>
     <use xlink:href="#m956597d8c9" x="130.834716" y="230.664229" style="fill: #b7573a; stroke: #b7573a"/>
     <use xlink:href="#m956597d8c9" x="243.561989" y="162.309353" style="fill: #b7573a; stroke: #b7573a"/>
     <use xlink:href="#m956597d8c9" x="216.507443" y="154.98018" style="fill: #b7573a; stroke: #b7573a"/>
     <use xlink:href="#m956597d8c9" x="112.798352" y="238.690864" style="fill: #b7573a; stroke: #b7573a"/>
     <use xlink:href="#m956597d8c9" x="225.525625" y="160.921591" style="fill: #b7573a; stroke: #b7573a"/>
     <use xlink:href="#m956597d8c9" x="193.961989" y="214.813304" style="fill: #b7573a; stroke: #b7573a"/>
     <use xlink:href="#m956597d8c9" x="144.361989" y="207.776903" style="fill: #b7573a; stroke: #b7573a"/>
     <use xlink:href="#m956597d8c9" x="144.361989" y="227.295997" style="fill: #b7573a; stroke: #b7573a"/>
     <use xlink:href="#m956597d8c9" x="342.761989" y="59.379511" style="fill: #b7573a; stroke: #b7573a"/>
     <use xlink:href="#m956597d8c9" x="216.507443" y="159.533829" style="fill: #b7573a; stroke: #b7573a"/>
     <use xlink:href="#m956597d8c9" x="157.889261" y="221.849704" style="fill: #b7573a; stroke: #b7573a"/>
     <use xlink:href="#m956597d8c9" x="180.434716" y="195.691737" style="fill: #b7573a; stroke: #b7573a"/>
     <use xlink:href="#m956597d8c9" x="234.543807" y="149.526723" style="fill: #b7573a; stroke: #b7573a"/>
     <use xlink:href="#m956597d8c9" x="342.761989" y="60.564928" style="fill: #b7573a; stroke: #b7573a"/>
     <use xlink:href="#m956597d8c9" x="257.089261" y="140.90738" style="fill: #b7573a; stroke: #b7573a"/>
     <use xlink:href="#m956597d8c9" x="293.161989" y="104.749471" style="fill: #b7573a; stroke: #b7573a"/>
     <use xlink:href="#m956597d8c9" x="315.707443" y="99.798296" style="fill: #b7573a; stroke: #b7573a"/>
     <use xlink:href="#m956597d8c9" x="302.18017" y="96.527655" style="fill: #b7573a; stroke: #b7573a"/>
     <use xlink:href="#m956597d8c9" x="189.452898" y="190.050263" style="fill: #b7573a; stroke: #b7573a"/>
     <use xlink:href="#m956597d8c9" x="270.616534" y="139.422027" style="fill: #b7573a; stroke: #b7573a"/>
     <use xlink:href="#m956597d8c9" x="288.652898" y="114.456641" style="fill: #b7573a; stroke: #b7573a"/>
     <use xlink:href="#m956597d8c9" x="180.434716" y="175.287163" style="fill: #b7573a; stroke: #b7573a"/>
     <use xlink:href="#m956597d8c9" x="387.852898" y="35.899478" style="fill: #b7573a; stroke: #b7573a"/>
     <use xlink:href="#m956597d8c9" x="374.325625" y="37.28724" style="fill: #b7573a; stroke: #b7573a"/>
     <use xlink:href="#m956597d8c9" x="225.525625" y="158.836366" style="fill: #b7573a; stroke: #b7573a"/>
     <use xlink:href="#m956597d8c9" x="342.761989" y="84.240143" style="fill: #b7573a; stroke: #b7573a"/>
     <use xlink:href="#m956597d8c9" x="324.725625" y="81.171847" style="fill: #b7573a; stroke: #b7573a"/>
     <use xlink:href="#m956597d8c9" x="275.125625" y="96.130128" style="fill: #b7573a; stroke: #b7573a"/>
     <use xlink:href="#m956597d8c9" x="243.561989" y="145.070665" style="fill: #b7573a; stroke: #b7573a"/>
     <use xlink:href="#m956597d8c9" x="184.943807" y="195.29421" style="fill: #b7573a; stroke: #b7573a"/>
     <use xlink:href="#m956597d8c9" x="193.961989" y="168.550699" style="fill: #b7573a; stroke: #b7573a"/>
     <use xlink:href="#m956597d8c9" x="211.998352" y="183.801752" style="fill: #b7573a; stroke: #b7573a"/>
     <use xlink:href="#m956597d8c9" x="180.434716" y="157.058241" style="fill: #b7573a; stroke: #b7573a"/>
     <use xlink:href="#m956597d8c9" x="275.125625" y="117.824873" style="fill: #b7573a; stroke: #b7573a"/>
     <use xlink:href="#m956597d8c9" x="356.289261" y="63.438042" style="fill: #b7573a; stroke: #b7573a"/>
     <use xlink:href="#m956597d8c9" x="184.943807" y="181.521346" style="fill: #b7573a; stroke: #b7573a"/>
     <use xlink:href="#m956597d8c9" x="239.052898" y="166.76541" style="fill: #b7573a; stroke: #b7573a"/>
     <use xlink:href="#m956597d8c9" x="302.18017" y="111.088409" style="fill: #b7573a; stroke: #b7573a"/>
     <use xlink:href="#m956597d8c9" x="252.58017" y="150.021841" style="fill: #b7573a; stroke: #b7573a"/>
     <use xlink:href="#m956597d8c9" x="135.343807" y="224.325292" style="fill: #b7573a; stroke: #b7573a"/>
     <use xlink:href="#m956597d8c9" x="311.198352" y="81.569374" style="fill: #b7573a; stroke: #b7573a"/>
     <use xlink:href="#m956597d8c9" x="121.816534" y="240.273807" style="fill: #b7573a; stroke: #b7573a"/>
     <use xlink:href="#m956597d8c9" x="225.525625" y="147.546253" style="fill: #b7573a; stroke: #b7573a"/>
     <use xlink:href="#m956597d8c9" x="202.98017" y="189.157618" style="fill: #b7573a; stroke: #b7573a"/>
     <use xlink:href="#m956597d8c9" x="211.998352" y="162.902061" style="fill: #b7573a; stroke: #b7573a"/>
     <use xlink:href="#m956597d8c9" x="239.052898" y="136.151386" style="fill: #b7573a; stroke: #b7573a"/>
     <use xlink:href="#m956597d8c9" x="374.325625" y="47.391936" style="fill: #b7573a; stroke: #b7573a"/>
     <use xlink:href="#m956597d8c9" x="243.561989" y="142.392732" style="fill: #b7573a; stroke: #b7573a"/>
     <use xlink:href="#m956597d8c9" x="230.034716" y="152.399838" style="fill: #b7573a; stroke: #b7573a"/>
     <use xlink:href="#m956597d8c9" x="293.161989" y="108.117703" style="fill: #b7573a; stroke: #b7573a"/>
     <use xlink:href="#m956597d8c9" x="243.561989" y="133.278271" style="fill: #b7573a; stroke: #b7573a"/>
     <use xlink:href="#m956597d8c9" x="315.707443" y="105.049408" style="fill: #b7573a; stroke: #b7573a"/>
     <use xlink:href="#m956597d8c9" x="284.143807" y="114.854168" style="fill: #b7573a; stroke: #b7573a"/>
     <use xlink:href="#m956597d8c9" x="306.689261" y="107.127468" style="fill: #b7573a; stroke: #b7573a"/>
     <use xlink:href="#m956597d8c9" x="63.198352" y="276.334125" style="fill: #b7573a; stroke: #b7573a"/>
     <use xlink:href="#m956597d8c9" x="198.47108" y="180.140748" style="fill: #b7573a; stroke: #b7573a"/>
     <use xlink:href="#m956597d8c9" x="221.016534" y="158.146067" style="fill: #b7573a; stroke: #b7573a"/>
     <use xlink:href="#m956597d8c9" x="90.252898" y="245.029801" style="fill: #b7573a; stroke: #b7573a"/>
     <use xlink:href="#m956597d8c9" x="288.652898" y="113.068879" style="fill: #b7573a; stroke: #b7573a"/>
     <use xlink:href="#m956597d8c9" x="184.943807" y="191.633206" style="fill: #b7573a; stroke: #b7573a"/>
     <use xlink:href="#m956597d8c9" x="329.234716" y="101.583585" style="fill: #b7573a; stroke: #b7573a"/>
     <use xlink:href="#m956597d8c9" x="284.143807" y="126.444216" style="fill: #b7573a; stroke: #b7573a"/>
     <use xlink:href="#m956597d8c9" x="153.38017" y="225.810644" style="fill: #b7573a; stroke: #b7573a"/>
     <use xlink:href="#m956597d8c9" x="338.252898" y="83.745025" style="fill: #b7573a; stroke: #b7573a"/>
     <use xlink:href="#m956597d8c9" x="198.47108" y="198.069734" style="fill: #b7573a; stroke: #b7573a"/>
     <use xlink:href="#m956597d8c9" x="324.725625" y="104.351944" style="fill: #b7573a; stroke: #b7573a"/>
     <use xlink:href="#m956597d8c9" x="387.852898" y="34.414125" style="fill: #b7573a; stroke: #b7573a"/>
     <use xlink:href="#m956597d8c9" x="207.489261" y="177.267633" style="fill: #b7573a; stroke: #b7573a"/>
     <use xlink:href="#m956597d8c9" x="293.161989" y="132.092855" style="fill: #b7573a; stroke: #b7573a"/>
     <use xlink:href="#m956597d8c9" x="67.707443" y="270.685487" style="fill: #b7573a; stroke: #b7573a"/>
     <use xlink:href="#m956597d8c9" x="315.707443" y="97.713071" style="fill: #b7573a; stroke: #b7573a"/>
     <use xlink:href="#m956597d8c9" x="126.325625" y="242.749395" style="fill: #b7573a; stroke: #b7573a"/>
     <use xlink:href="#m956597d8c9" x="248.07108" y="155.272952" style="fill: #b7573a; stroke: #b7573a"/>
     <use xlink:href="#m956597d8c9" x="284.143807" y="128.822213" style="fill: #b7573a; stroke: #b7573a"/>
     <use xlink:href="#m956597d8c9" x="243.561989" y="134.868379" style="fill: #b7573a; stroke: #b7573a"/>
     <use xlink:href="#m956597d8c9" x="342.761989" y="63.242861" style="fill: #b7573a; stroke: #b7573a"/>
     <use xlink:href="#m956597d8c9" x="324.725625" y="64.135505" style="fill: #b7573a; stroke: #b7573a"/>
     <use xlink:href="#m956597d8c9" x="157.889261" y="209.464601" style="fill: #b7573a; stroke: #b7573a"/>
     <use xlink:href="#m956597d8c9" x="171.416534" y="224.325292" style="fill: #b7573a; stroke: #b7573a"/>
     <use xlink:href="#m956597d8c9" x="239.052898" y="156.660714" style="fill: #b7573a; stroke: #b7573a"/>
     <use xlink:href="#m956597d8c9" x="243.561989" y="151.409603" style="fill: #b7573a; stroke: #b7573a"/>
     <use xlink:href="#m956597d8c9" x="315.707443" y="105.942052" style="fill: #b7573a; stroke: #b7573a"/>
     <use xlink:href="#m956597d8c9" x="261.598352" y="146.653609" style="fill: #b7573a; stroke: #b7573a"/>
     <use xlink:href="#m956597d8c9" x="216.507443" y="165.677585" style="fill: #b7573a; stroke: #b7573a"/>
     <use xlink:href="#m956597d8c9" x="288.652898" y="122.483276" style="fill: #b7573a; stroke: #b7573a"/>
     <use xlink:href="#m956597d8c9" x="320.216534" y="87.413194" style="fill: #b7573a; stroke: #b7573a"/>
     <use xlink:href="#m956597d8c9" x="230.034716" y="157.74854" style="fill: #b7573a; stroke: #b7573a"/>
     <use xlink:href="#m956597d8c9" x="311.198352" y="116.737047" style="fill: #b7573a; stroke: #b7573a"/>
     <use xlink:href="#m956597d8c9" x="365.307443" y="63.340452" style="fill: #b7573a; stroke: #b7573a"/>
     <use xlink:href="#m956597d8c9" x="293.161989" y="108.020113" style="fill: #b7573a; stroke: #b7573a"/>
     <use xlink:href="#m956597d8c9" x="225.525625" y="182.518745" style="fill: #b7573a; stroke: #b7573a"/>
     <use xlink:href="#m956597d8c9" x="324.725625" y="99.400769" style="fill: #b7573a; stroke: #b7573a"/>
     <use xlink:href="#m956597d8c9" x="193.961989" y="184.596806" style="fill: #b7573a; stroke: #b7573a"/>
     <use xlink:href="#m956597d8c9" x="225.525625" y="171.326223" style="fill: #b7573a; stroke: #b7573a"/>
     <use xlink:href="#m956597d8c9" x="306.689261" y="122.385685" style="fill: #b7573a; stroke: #b7573a"/>
     <use xlink:href="#m956597d8c9" x="211.998352" y="166.367883" style="fill: #b7573a; stroke: #b7573a"/>
     <use xlink:href="#m956597d8c9" x="148.87108" y="208.17443" style="fill: #b7573a; stroke: #b7573a"/>
     <use xlink:href="#m956597d8c9" x="211.998352" y="167.658055" style="fill: #b7573a; stroke: #b7573a"/>
     <use xlink:href="#m956597d8c9" x="270.616534" y="136.946439" style="fill: #b7573a; stroke: #b7573a"/>
     <use xlink:href="#m956597d8c9" x="230.034716" y="166.172702" style="fill: #b7573a; stroke: #b7573a"/>
     <use xlink:href="#m956597d8c9" x="297.67108" y="99.49836" style="fill: #b7573a; stroke: #b7573a"/>
     <use xlink:href="#m956597d8c9" x="157.889261" y="207.184195" style="fill: #b7573a; stroke: #b7573a"/>
     <use xlink:href="#m956597d8c9" x="329.234716" y="87.615539" style="fill: #b7573a; stroke: #b7573a"/>
     <use xlink:href="#m956597d8c9" x="297.67108" y="120.405215" style="fill: #b7573a; stroke: #b7573a"/>
     <use xlink:href="#m956597d8c9" x="284.143807" y="126.444216" style="fill: #b7573a; stroke: #b7573a"/>
     <use xlink:href="#m956597d8c9" x="207.489261" y="183.013862" style="fill: #b7573a; stroke: #b7573a"/>
     <use xlink:href="#m956597d8c9" x="180.434716" y="181.821282" style="fill: #b7573a; stroke: #b7573a"/>
     <use xlink:href="#m956597d8c9" x="202.98017" y="188.857682" style="fill: #b7573a; stroke: #b7573a"/>
     <use xlink:href="#m956597d8c9" x="311.198352" y="105.544525" style="fill: #b7573a; stroke: #b7573a"/>
     <use xlink:href="#m956597d8c9" x="248.07108" y="140.712198" style="fill: #b7573a; stroke: #b7573a"/>
     <use xlink:href="#m956597d8c9" x="351.78017" y="93.752131" style="fill: #b7573a; stroke: #b7573a"/>
     <use xlink:href="#m956597d8c9" x="288.652898" y="103.759236" style="fill: #b7573a; stroke: #b7573a"/>
     <use xlink:href="#m956597d8c9" x="329.234716" y="111.193164" style="fill: #b7573a; stroke: #b7573a"/>
     <use xlink:href="#m956597d8c9" x="306.689261" y="95.53742" style="fill: #b7573a; stroke: #b7573a"/>
     <use xlink:href="#m956597d8c9" x="230.034716" y="165.872766" style="fill: #b7573a; stroke: #b7573a"/>
     <use xlink:href="#m956597d8c9" x="230.034716" y="164.78494" style="fill: #b7573a; stroke: #b7573a"/>
     <use xlink:href="#m956597d8c9" x="320.216534" y="98.013007" style="fill: #b7573a; stroke: #b7573a"/>
     <use xlink:href="#m956597d8c9" x="239.052898" y="162.406943" style="fill: #b7573a; stroke: #b7573a"/>
     <use xlink:href="#m956597d8c9" x="288.652898" y="98.410534" style="fill: #b7573a; stroke: #b7573a"/>
     <use xlink:href="#m956597d8c9" x="198.47108" y="159.631419" style="fill: #b7573a; stroke: #b7573a"/>
     <use xlink:href="#m956597d8c9" x="216.507443" y="165.775175" style="fill: #b7573a; stroke: #b7573a"/>
     <use xlink:href="#m956597d8c9" x="311.198352" y="114.854168" style="fill: #b7573a; stroke: #b7573a"/>
     <use xlink:href="#m956597d8c9" x="166.907443" y="191.633206" style="fill: #b7573a; stroke: #b7573a"/>
     <use xlink:href="#m956597d8c9" x="243.561989" y="145.468192" style="fill: #b7573a; stroke: #b7573a"/>
     <use xlink:href="#m956597d8c9" x="320.216534" y="109.310284" style="fill: #b7573a; stroke: #b7573a"/>
     <use xlink:href="#m956597d8c9" x="225.525625" y="150.914485" style="fill: #b7573a; stroke: #b7573a"/>
     <use xlink:href="#m956597d8c9" x="221.016534" y="170.831105" style="fill: #b7573a; stroke: #b7573a"/>
     <use xlink:href="#m956597d8c9" x="320.216534" y="95.335074" style="fill: #b7573a; stroke: #b7573a"/>
     <use xlink:href="#m956597d8c9" x="157.889261" y="186.682031" style="fill: #b7573a; stroke: #b7573a"/>
    </g>
   </g>
   <g id="matplotlib.axis_1">
    <g id="xtick_1">
     <g id="line2d_1">
      <defs>
       <path id="mc608fb56bc" d="M 0 0 
L 0 3.5 
" style="stroke: #000000; stroke-width: 0.8"/>
      </defs>
      <g>
       <use xlink:href="#mc608fb56bc" x="72.216534" y="288.430125" style="stroke: #000000; stroke-width: 0.8"/>
      </g>
     </g>
     <g id="text_1">
      <!-- 30 -->
      <g transform="translate(65.854034 303.028562) scale(0.1 -0.1)">
       <defs>
        <path id="DejaVuSans-33" d="M 2597 2516 
Q 3050 2419 3304 2112 
Q 3559 1806 3559 1356 
Q 3559 666 3084 287 
Q 2609 -91 1734 -91 
Q 1441 -91 1130 -33 
Q 819 25 488 141 
L 488 750 
Q 750 597 1062 519 
Q 1375 441 1716 441 
Q 2309 441 2620 675 
Q 2931 909 2931 1356 
Q 2931 1769 2642 2001 
Q 2353 2234 1838 2234 
L 1294 2234 
L 1294 2753 
L 1863 2753 
Q 2328 2753 2575 2939 
Q 2822 3125 2822 3475 
Q 2822 3834 2567 4026 
Q 2313 4219 1838 4219 
Q 1578 4219 1281 4162 
Q 984 4106 628 3988 
L 628 4550 
Q 988 4650 1302 4700 
Q 1616 4750 1894 4750 
Q 2613 4750 3031 4423 
Q 3450 4097 3450 3541 
Q 3450 3153 3228 2886 
Q 3006 2619 2597 2516 
z
" transform="scale(0.015625)"/>
        <path id="DejaVuSans-30" d="M 2034 4250 
Q 1547 4250 1301 3770 
Q 1056 3291 1056 2328 
Q 1056 1369 1301 889 
Q 1547 409 2034 409 
Q 2525 409 2770 889 
Q 3016 1369 3016 2328 
Q 3016 3291 2770 3770 
Q 2525 4250 2034 4250 
z
M 2034 4750 
Q 2819 4750 3233 4129 
Q 3647 3509 3647 2328 
Q 3647 1150 3233 529 
Q 2819 -91 2034 -91 
Q 1250 -91 836 529 
Q 422 1150 422 2328 
Q 422 3509 836 4129 
Q 1250 4750 2034 4750 
z
" transform="scale(0.015625)"/>
       </defs>
       <use xlink:href="#DejaVuSans-33"/>
       <use xlink:href="#DejaVuSans-30" transform="translate(63.623047 0)"/>
      </g>
     </g>
    </g>
    <g id="xtick_2">
     <g id="line2d_2">
      <g>
       <use xlink:href="#mc608fb56bc" x="117.307443" y="288.430125" style="stroke: #000000; stroke-width: 0.8"/>
      </g>
     </g>
     <g id="text_2">
      <!-- 40 -->
      <g transform="translate(110.944943 303.028562) scale(0.1 -0.1)">
       <defs>
        <path id="DejaVuSans-34" d="M 2419 4116 
L 825 1625 
L 2419 1625 
L 2419 4116 
z
M 2253 4666 
L 3047 4666 
L 3047 1625 
L 3713 1625 
L 3713 1100 
L 3047 1100 
L 3047 0 
L 2419 0 
L 2419 1100 
L 313 1100 
L 313 1709 
L 2253 4666 
z
" transform="scale(0.015625)"/>
       </defs>
       <use xlink:href="#DejaVuSans-34"/>
       <use xlink:href="#DejaVuSans-30" transform="translate(63.623047 0)"/>
      </g>
     </g>
    </g>
    <g id="xtick_3">
     <g id="line2d_3">
      <g>
       <use xlink:href="#mc608fb56bc" x="162.398352" y="288.430125" style="stroke: #000000; stroke-width: 0.8"/>
      </g>
     </g>
     <g id="text_3">
      <!-- 50 -->
      <g transform="translate(156.035852 303.028562) scale(0.1 -0.1)">
       <defs>
        <path id="DejaVuSans-35" d="M 691 4666 
L 3169 4666 
L 3169 4134 
L 1269 4134 
L 1269 2991 
Q 1406 3038 1543 3061 
Q 1681 3084 1819 3084 
Q 2600 3084 3056 2656 
Q 3513 2228 3513 1497 
Q 3513 744 3044 326 
Q 2575 -91 1722 -91 
Q 1428 -91 1123 -41 
Q 819 9 494 109 
L 494 744 
Q 775 591 1075 516 
Q 1375 441 1709 441 
Q 2250 441 2565 725 
Q 2881 1009 2881 1497 
Q 2881 1984 2565 2268 
Q 2250 2553 1709 2553 
Q 1456 2553 1204 2497 
Q 953 2441 691 2322 
L 691 4666 
z
" transform="scale(0.015625)"/>
       </defs>
       <use xlink:href="#DejaVuSans-35"/>
       <use xlink:href="#DejaVuSans-30" transform="translate(63.623047 0)"/>
      </g>
     </g>
    </g>
    <g id="xtick_4">
     <g id="line2d_4">
      <g>
       <use xlink:href="#mc608fb56bc" x="207.489261" y="288.430125" style="stroke: #000000; stroke-width: 0.8"/>
      </g>
     </g>
     <g id="text_4">
      <!-- 60 -->
      <g transform="translate(201.126761 303.028562) scale(0.1 -0.1)">
       <defs>
        <path id="DejaVuSans-36" d="M 2113 2584 
Q 1688 2584 1439 2293 
Q 1191 2003 1191 1497 
Q 1191 994 1439 701 
Q 1688 409 2113 409 
Q 2538 409 2786 701 
Q 3034 994 3034 1497 
Q 3034 2003 2786 2293 
Q 2538 2584 2113 2584 
z
M 3366 4563 
L 3366 3988 
Q 3128 4100 2886 4159 
Q 2644 4219 2406 4219 
Q 1781 4219 1451 3797 
Q 1122 3375 1075 2522 
Q 1259 2794 1537 2939 
Q 1816 3084 2150 3084 
Q 2853 3084 3261 2657 
Q 3669 2231 3669 1497 
Q 3669 778 3244 343 
Q 2819 -91 2113 -91 
Q 1303 -91 875 529 
Q 447 1150 447 2328 
Q 447 3434 972 4092 
Q 1497 4750 2381 4750 
Q 2619 4750 2861 4703 
Q 3103 4656 3366 4563 
z
" transform="scale(0.015625)"/>
       </defs>
       <use xlink:href="#DejaVuSans-36"/>
       <use xlink:href="#DejaVuSans-30" transform="translate(63.623047 0)"/>
      </g>
     </g>
    </g>
    <g id="xtick_5">
     <g id="line2d_5">
      <g>
       <use xlink:href="#mc608fb56bc" x="252.58017" y="288.430125" style="stroke: #000000; stroke-width: 0.8"/>
      </g>
     </g>
     <g id="text_5">
      <!-- 70 -->
      <g transform="translate(246.21767 303.028562) scale(0.1 -0.1)">
       <defs>
        <path id="DejaVuSans-37" d="M 525 4666 
L 3525 4666 
L 3525 4397 
L 1831 0 
L 1172 0 
L 2766 4134 
L 525 4134 
L 525 4666 
z
" transform="scale(0.015625)"/>
       </defs>
       <use xlink:href="#DejaVuSans-37"/>
       <use xlink:href="#DejaVuSans-30" transform="translate(63.623047 0)"/>
      </g>
     </g>
    </g>
    <g id="xtick_6">
     <g id="line2d_6">
      <g>
       <use xlink:href="#mc608fb56bc" x="297.67108" y="288.430125" style="stroke: #000000; stroke-width: 0.8"/>
      </g>
     </g>
     <g id="text_6">
      <!-- 80 -->
      <g transform="translate(291.30858 303.028562) scale(0.1 -0.1)">
       <defs>
        <path id="DejaVuSans-38" d="M 2034 2216 
Q 1584 2216 1326 1975 
Q 1069 1734 1069 1313 
Q 1069 891 1326 650 
Q 1584 409 2034 409 
Q 2484 409 2743 651 
Q 3003 894 3003 1313 
Q 3003 1734 2745 1975 
Q 2488 2216 2034 2216 
z
M 1403 2484 
Q 997 2584 770 2862 
Q 544 3141 544 3541 
Q 544 4100 942 4425 
Q 1341 4750 2034 4750 
Q 2731 4750 3128 4425 
Q 3525 4100 3525 3541 
Q 3525 3141 3298 2862 
Q 3072 2584 2669 2484 
Q 3125 2378 3379 2068 
Q 3634 1759 3634 1313 
Q 3634 634 3220 271 
Q 2806 -91 2034 -91 
Q 1263 -91 848 271 
Q 434 634 434 1313 
Q 434 1759 690 2068 
Q 947 2378 1403 2484 
z
M 1172 3481 
Q 1172 3119 1398 2916 
Q 1625 2713 2034 2713 
Q 2441 2713 2670 2916 
Q 2900 3119 2900 3481 
Q 2900 3844 2670 4047 
Q 2441 4250 2034 4250 
Q 1625 4250 1398 4047 
Q 1172 3844 1172 3481 
z
" transform="scale(0.015625)"/>
       </defs>
       <use xlink:href="#DejaVuSans-38"/>
       <use xlink:href="#DejaVuSans-30" transform="translate(63.623047 0)"/>
      </g>
     </g>
    </g>
    <g id="xtick_7">
     <g id="line2d_7">
      <g>
       <use xlink:href="#mc608fb56bc" x="342.761989" y="288.430125" style="stroke: #000000; stroke-width: 0.8"/>
      </g>
     </g>
     <g id="text_7">
      <!-- 90 -->
      <g transform="translate(336.399489 303.028562) scale(0.1 -0.1)">
       <defs>
        <path id="DejaVuSans-39" d="M 703 97 
L 703 672 
Q 941 559 1184 500 
Q 1428 441 1663 441 
Q 2288 441 2617 861 
Q 2947 1281 2994 2138 
Q 2813 1869 2534 1725 
Q 2256 1581 1919 1581 
Q 1219 1581 811 2004 
Q 403 2428 403 3163 
Q 403 3881 828 4315 
Q 1253 4750 1959 4750 
Q 2769 4750 3195 4129 
Q 3622 3509 3622 2328 
Q 3622 1225 3098 567 
Q 2575 -91 1691 -91 
Q 1453 -91 1209 -44 
Q 966 3 703 97 
z
M 1959 2075 
Q 2384 2075 2632 2365 
Q 2881 2656 2881 3163 
Q 2881 3666 2632 3958 
Q 2384 4250 1959 4250 
Q 1534 4250 1286 3958 
Q 1038 3666 1038 3163 
Q 1038 2656 1286 2365 
Q 1534 2075 1959 2075 
z
" transform="scale(0.015625)"/>
       </defs>
       <use xlink:href="#DejaVuSans-39"/>
       <use xlink:href="#DejaVuSans-30" transform="translate(63.623047 0)"/>
      </g>
     </g>
    </g>
    <g id="xtick_8">
     <g id="line2d_8">
      <g>
       <use xlink:href="#mc608fb56bc" x="387.852898" y="288.430125" style="stroke: #000000; stroke-width: 0.8"/>
      </g>
     </g>
     <g id="text_8">
      <!-- 100 -->
      <g transform="translate(378.309148 303.028562) scale(0.1 -0.1)">
       <defs>
        <path id="DejaVuSans-31" d="M 794 531 
L 1825 531 
L 1825 4091 
L 703 3866 
L 703 4441 
L 1819 4666 
L 2450 4666 
L 2450 531 
L 3481 531 
L 3481 0 
L 794 0 
L 794 531 
z
" transform="scale(0.015625)"/>
       </defs>
       <use xlink:href="#DejaVuSans-31"/>
       <use xlink:href="#DejaVuSans-30" transform="translate(63.623047 0)"/>
       <use xlink:href="#DejaVuSans-30" transform="translate(127.246094 0)"/>
      </g>
     </g>
    </g>
    <g id="text_9">
     <!-- Actual Reading Score -->
     <g transform="translate(172.385 316.706687) scale(0.1 -0.1)">
      <defs>
       <path id="DejaVuSans-41" d="M 2188 4044 
L 1331 1722 
L 3047 1722 
L 2188 4044 
z
M 1831 4666 
L 2547 4666 
L 4325 0 
L 3669 0 
L 3244 1197 
L 1141 1197 
L 716 0 
L 50 0 
L 1831 4666 
z
" transform="scale(0.015625)"/>
       <path id="DejaVuSans-63" d="M 3122 3366 
L 3122 2828 
Q 2878 2963 2633 3030 
Q 2388 3097 2138 3097 
Q 1578 3097 1268 2742 
Q 959 2388 959 1747 
Q 959 1106 1268 751 
Q 1578 397 2138 397 
Q 2388 397 2633 464 
Q 2878 531 3122 666 
L 3122 134 
Q 2881 22 2623 -34 
Q 2366 -91 2075 -91 
Q 1284 -91 818 406 
Q 353 903 353 1747 
Q 353 2603 823 3093 
Q 1294 3584 2113 3584 
Q 2378 3584 2631 3529 
Q 2884 3475 3122 3366 
z
" transform="scale(0.015625)"/>
       <path id="DejaVuSans-74" d="M 1172 4494 
L 1172 3500 
L 2356 3500 
L 2356 3053 
L 1172 3053 
L 1172 1153 
Q 1172 725 1289 603 
Q 1406 481 1766 481 
L 2356 481 
L 2356 0 
L 1766 0 
Q 1100 0 847 248 
Q 594 497 594 1153 
L 594 3053 
L 172 3053 
L 172 3500 
L 594 3500 
L 594 4494 
L 1172 4494 
z
" transform="scale(0.015625)"/>
       <path id="DejaVuSans-75" d="M 544 1381 
L 544 3500 
L 1119 3500 
L 1119 1403 
Q 1119 906 1312 657 
Q 1506 409 1894 409 
Q 2359 409 2629 706 
Q 2900 1003 2900 1516 
L 2900 3500 
L 3475 3500 
L 3475 0 
L 2900 0 
L 2900 538 
Q 2691 219 2414 64 
Q 2138 -91 1772 -91 
Q 1169 -91 856 284 
Q 544 659 544 1381 
z
M 1991 3584 
L 1991 3584 
z
" transform="scale(0.015625)"/>
       <path id="DejaVuSans-61" d="M 2194 1759 
Q 1497 1759 1228 1600 
Q 959 1441 959 1056 
Q 959 750 1161 570 
Q 1363 391 1709 391 
Q 2188 391 2477 730 
Q 2766 1069 2766 1631 
L 2766 1759 
L 2194 1759 
z
M 3341 1997 
L 3341 0 
L 2766 0 
L 2766 531 
Q 2569 213 2275 61 
Q 1981 -91 1556 -91 
Q 1019 -91 701 211 
Q 384 513 384 1019 
Q 384 1609 779 1909 
Q 1175 2209 1959 2209 
L 2766 2209 
L 2766 2266 
Q 2766 2663 2505 2880 
Q 2244 3097 1772 3097 
Q 1472 3097 1187 3025 
Q 903 2953 641 2809 
L 641 3341 
Q 956 3463 1253 3523 
Q 1550 3584 1831 3584 
Q 2591 3584 2966 3190 
Q 3341 2797 3341 1997 
z
" transform="scale(0.015625)"/>
       <path id="DejaVuSans-6c" d="M 603 4863 
L 1178 4863 
L 1178 0 
L 603 0 
L 603 4863 
z
" transform="scale(0.015625)"/>
       <path id="DejaVuSans-20" transform="scale(0.015625)"/>
       <path id="DejaVuSans-52" d="M 2841 2188 
Q 3044 2119 3236 1894 
Q 3428 1669 3622 1275 
L 4263 0 
L 3584 0 
L 2988 1197 
Q 2756 1666 2539 1819 
Q 2322 1972 1947 1972 
L 1259 1972 
L 1259 0 
L 628 0 
L 628 4666 
L 2053 4666 
Q 2853 4666 3247 4331 
Q 3641 3997 3641 3322 
Q 3641 2881 3436 2590 
Q 3231 2300 2841 2188 
z
M 1259 4147 
L 1259 2491 
L 2053 2491 
Q 2509 2491 2742 2702 
Q 2975 2913 2975 3322 
Q 2975 3731 2742 3939 
Q 2509 4147 2053 4147 
L 1259 4147 
z
" transform="scale(0.015625)"/>
       <path id="DejaVuSans-65" d="M 3597 1894 
L 3597 1613 
L 953 1613 
Q 991 1019 1311 708 
Q 1631 397 2203 397 
Q 2534 397 2845 478 
Q 3156 559 3463 722 
L 3463 178 
Q 3153 47 2828 -22 
Q 2503 -91 2169 -91 
Q 1331 -91 842 396 
Q 353 884 353 1716 
Q 353 2575 817 3079 
Q 1281 3584 2069 3584 
Q 2775 3584 3186 3129 
Q 3597 2675 3597 1894 
z
M 3022 2063 
Q 3016 2534 2758 2815 
Q 2500 3097 2075 3097 
Q 1594 3097 1305 2825 
Q 1016 2553 972 2059 
L 3022 2063 
z
" transform="scale(0.015625)"/>
       <path id="DejaVuSans-64" d="M 2906 2969 
L 2906 4863 
L 3481 4863 
L 3481 0 
L 2906 0 
L 2906 525 
Q 2725 213 2448 61 
Q 2172 -91 1784 -91 
Q 1150 -91 751 415 
Q 353 922 353 1747 
Q 353 2572 751 3078 
Q 1150 3584 1784 3584 
Q 2172 3584 2448 3432 
Q 2725 3281 2906 2969 
z
M 947 1747 
Q 947 1113 1208 752 
Q 1469 391 1925 391 
Q 2381 391 2643 752 
Q 2906 1113 2906 1747 
Q 2906 2381 2643 2742 
Q 2381 3103 1925 3103 
Q 1469 3103 1208 2742 
Q 947 2381 947 1747 
z
" transform="scale(0.015625)"/>
       <path id="DejaVuSans-69" d="M 603 3500 
L 1178 3500 
L 1178 0 
L 603 0 
L 603 3500 
z
M 603 4863 
L 1178 4863 
L 1178 4134 
L 603 4134 
L 603 4863 
z
" transform="scale(0.015625)"/>
       <path id="DejaVuSans-6e" d="M 3513 2113 
L 3513 0 
L 2938 0 
L 2938 2094 
Q 2938 2591 2744 2837 
Q 2550 3084 2163 3084 
Q 1697 3084 1428 2787 
Q 1159 2491 1159 1978 
L 1159 0 
L 581 0 
L 581 3500 
L 1159 3500 
L 1159 2956 
Q 1366 3272 1645 3428 
Q 1925 3584 2291 3584 
Q 2894 3584 3203 3211 
Q 3513 2838 3513 2113 
z
" transform="scale(0.015625)"/>
       <path id="DejaVuSans-67" d="M 2906 1791 
Q 2906 2416 2648 2759 
Q 2391 3103 1925 3103 
Q 1463 3103 1205 2759 
Q 947 2416 947 1791 
Q 947 1169 1205 825 
Q 1463 481 1925 481 
Q 2391 481 2648 825 
Q 2906 1169 2906 1791 
z
M 3481 434 
Q 3481 -459 3084 -895 
Q 2688 -1331 1869 -1331 
Q 1566 -1331 1297 -1286 
Q 1028 -1241 775 -1147 
L 775 -588 
Q 1028 -725 1275 -790 
Q 1522 -856 1778 -856 
Q 2344 -856 2625 -561 
Q 2906 -266 2906 331 
L 2906 616 
Q 2728 306 2450 153 
Q 2172 0 1784 0 
Q 1141 0 747 490 
Q 353 981 353 1791 
Q 353 2603 747 3093 
Q 1141 3584 1784 3584 
Q 2172 3584 2450 3431 
Q 2728 3278 2906 2969 
L 2906 3500 
L 3481 3500 
L 3481 434 
z
" transform="scale(0.015625)"/>
       <path id="DejaVuSans-53" d="M 3425 4513 
L 3425 3897 
Q 3066 4069 2747 4153 
Q 2428 4238 2131 4238 
Q 1616 4238 1336 4038 
Q 1056 3838 1056 3469 
Q 1056 3159 1242 3001 
Q 1428 2844 1947 2747 
L 2328 2669 
Q 3034 2534 3370 2195 
Q 3706 1856 3706 1288 
Q 3706 609 3251 259 
Q 2797 -91 1919 -91 
Q 1588 -91 1214 -16 
Q 841 59 441 206 
L 441 856 
Q 825 641 1194 531 
Q 1563 422 1919 422 
Q 2459 422 2753 634 
Q 3047 847 3047 1241 
Q 3047 1584 2836 1778 
Q 2625 1972 2144 2069 
L 1759 2144 
Q 1053 2284 737 2584 
Q 422 2884 422 3419 
Q 422 4038 858 4394 
Q 1294 4750 2059 4750 
Q 2388 4750 2728 4690 
Q 3069 4631 3425 4513 
z
" transform="scale(0.015625)"/>
       <path id="DejaVuSans-6f" d="M 1959 3097 
Q 1497 3097 1228 2736 
Q 959 2375 959 1747 
Q 959 1119 1226 758 
Q 1494 397 1959 397 
Q 2419 397 2687 759 
Q 2956 1122 2956 1747 
Q 2956 2369 2687 2733 
Q 2419 3097 1959 3097 
z
M 1959 3584 
Q 2709 3584 3137 3096 
Q 3566 2609 3566 1747 
Q 3566 888 3137 398 
Q 2709 -91 1959 -91 
Q 1206 -91 779 398 
Q 353 888 353 1747 
Q 353 2609 779 3096 
Q 1206 3584 1959 3584 
z
" transform="scale(0.015625)"/>
       <path id="DejaVuSans-72" d="M 2631 2963 
Q 2534 3019 2420 3045 
Q 2306 3072 2169 3072 
Q 1681 3072 1420 2755 
Q 1159 2438 1159 1844 
L 1159 0 
L 581 0 
L 581 3500 
L 1159 3500 
L 1159 2956 
Q 1341 3275 1631 3429 
Q 1922 3584 2338 3584 
Q 2397 3584 2469 3576 
Q 2541 3569 2628 3553 
L 2631 2963 
z
" transform="scale(0.015625)"/>
      </defs>
      <use xlink:href="#DejaVuSans-41"/>
      <use xlink:href="#DejaVuSans-63" transform="translate(66.658203 0)"/>
      <use xlink:href="#DejaVuSans-74" transform="translate(121.638672 0)"/>
      <use xlink:href="#DejaVuSans-75" transform="translate(160.847656 0)"/>
      <use xlink:href="#DejaVuSans-61" transform="translate(224.226562 0)"/>
      <use xlink:href="#DejaVuSans-6c" transform="translate(285.505859 0)"/>
      <use xlink:href="#DejaVuSans-20" transform="translate(313.289062 0)"/>
      <use xlink:href="#DejaVuSans-52" transform="translate(345.076172 0)"/>
      <use xlink:href="#DejaVuSans-65" transform="translate(410.058594 0)"/>
      <use xlink:href="#DejaVuSans-61" transform="translate(471.582031 0)"/>
      <use xlink:href="#DejaVuSans-64" transform="translate(532.861328 0)"/>
      <use xlink:href="#DejaVuSans-69" transform="translate(596.337891 0)"/>
      <use xlink:href="#DejaVuSans-6e" transform="translate(624.121094 0)"/>
      <use xlink:href="#DejaVuSans-67" transform="translate(687.5 0)"/>
      <use xlink:href="#DejaVuSans-20" transform="translate(750.976562 0)"/>
      <use xlink:href="#DejaVuSans-53" transform="translate(782.763672 0)"/>
      <use xlink:href="#DejaVuSans-63" transform="translate(846.240234 0)"/>
      <use xlink:href="#DejaVuSans-6f" transform="translate(901.220703 0)"/>
      <use xlink:href="#DejaVuSans-72" transform="translate(962.402344 0)"/>
      <use xlink:href="#DejaVuSans-65" transform="translate(1001.265625 0)"/>
     </g>
    </g>
   </g>
   <g id="matplotlib.axis_2">
    <g id="ytick_1">
     <g id="line2d_9">
      <defs>
       <path id="m17d9edf595" d="M 0 0 
L -3.5 0 
" style="stroke: #000000; stroke-width: 0.8"/>
      </defs>
      <g>
       <use xlink:href="#m17d9edf595" x="46.965625" y="284.212553" style="stroke: #000000; stroke-width: 0.8"/>
      </g>
     </g>
     <g id="text_10">
      <!-- 30 -->
      <g transform="translate(27.240625 288.011772) scale(0.1 -0.1)">
       <use xlink:href="#DejaVuSans-33"/>
       <use xlink:href="#DejaVuSans-30" transform="translate(63.623047 0)"/>
      </g>
     </g>
    </g>
    <g id="ytick_2">
     <g id="line2d_10">
      <g>
       <use xlink:href="#m17d9edf595" x="46.965625" y="248.157636" style="stroke: #000000; stroke-width: 0.8"/>
      </g>
     </g>
     <g id="text_11">
      <!-- 40 -->
      <g transform="translate(27.240625 251.956855) scale(0.1 -0.1)">
       <use xlink:href="#DejaVuSans-34"/>
       <use xlink:href="#DejaVuSans-30" transform="translate(63.623047 0)"/>
      </g>
     </g>
    </g>
    <g id="ytick_3">
     <g id="line2d_11">
      <g>
       <use xlink:href="#m17d9edf595" x="46.965625" y="212.102719" style="stroke: #000000; stroke-width: 0.8"/>
      </g>
     </g>
     <g id="text_12">
      <!-- 50 -->
      <g transform="translate(27.240625 215.901938) scale(0.1 -0.1)">
       <use xlink:href="#DejaVuSans-35"/>
       <use xlink:href="#DejaVuSans-30" transform="translate(63.623047 0)"/>
      </g>
     </g>
    </g>
    <g id="ytick_4">
     <g id="line2d_12">
      <g>
       <use xlink:href="#m17d9edf595" x="46.965625" y="176.047802" style="stroke: #000000; stroke-width: 0.8"/>
      </g>
     </g>
     <g id="text_13">
      <!-- 60 -->
      <g transform="translate(27.240625 179.847021) scale(0.1 -0.1)">
       <use xlink:href="#DejaVuSans-36"/>
       <use xlink:href="#DejaVuSans-30" transform="translate(63.623047 0)"/>
      </g>
     </g>
    </g>
    <g id="ytick_5">
     <g id="line2d_13">
      <g>
       <use xlink:href="#m17d9edf595" x="46.965625" y="139.992885" style="stroke: #000000; stroke-width: 0.8"/>
      </g>
     </g>
     <g id="text_14">
      <!-- 70 -->
      <g transform="translate(27.240625 143.792104) scale(0.1 -0.1)">
       <use xlink:href="#DejaVuSans-37"/>
       <use xlink:href="#DejaVuSans-30" transform="translate(63.623047 0)"/>
      </g>
     </g>
    </g>
    <g id="ytick_6">
     <g id="line2d_14">
      <g>
       <use xlink:href="#m17d9edf595" x="46.965625" y="103.937968" style="stroke: #000000; stroke-width: 0.8"/>
      </g>
     </g>
     <g id="text_15">
      <!-- 80 -->
      <g transform="translate(27.240625 107.737186) scale(0.1 -0.1)">
       <use xlink:href="#DejaVuSans-38"/>
       <use xlink:href="#DejaVuSans-30" transform="translate(63.623047 0)"/>
      </g>
     </g>
    </g>
    <g id="ytick_7">
     <g id="line2d_15">
      <g>
       <use xlink:href="#m17d9edf595" x="46.965625" y="67.883051" style="stroke: #000000; stroke-width: 0.8"/>
      </g>
     </g>
     <g id="text_16">
      <!-- 90 -->
      <g transform="translate(27.240625 71.682269) scale(0.1 -0.1)">
       <use xlink:href="#DejaVuSans-39"/>
       <use xlink:href="#DejaVuSans-30" transform="translate(63.623047 0)"/>
      </g>
     </g>
    </g>
    <g id="ytick_8">
     <g id="line2d_16">
      <g>
       <use xlink:href="#m17d9edf595" x="46.965625" y="31.828134" style="stroke: #000000; stroke-width: 0.8"/>
      </g>
     </g>
     <g id="text_17">
      <!-- 100 -->
      <g transform="translate(20.878125 35.627352) scale(0.1 -0.1)">
       <use xlink:href="#DejaVuSans-31"/>
       <use xlink:href="#DejaVuSans-30" transform="translate(63.623047 0)"/>
       <use xlink:href="#DejaVuSans-30" transform="translate(127.246094 0)"/>
      </g>
     </g>
    </g>
    <g id="text_18">
     <!-- Predicted Reading Score -->
     <g transform="translate(14.798438 216.321) rotate(-90) scale(0.1 -0.1)">
      <defs>
       <path id="DejaVuSans-50" d="M 1259 4147 
L 1259 2394 
L 2053 2394 
Q 2494 2394 2734 2622 
Q 2975 2850 2975 3272 
Q 2975 3691 2734 3919 
Q 2494 4147 2053 4147 
L 1259 4147 
z
M 628 4666 
L 2053 4666 
Q 2838 4666 3239 4311 
Q 3641 3956 3641 3272 
Q 3641 2581 3239 2228 
Q 2838 1875 2053 1875 
L 1259 1875 
L 1259 0 
L 628 0 
L 628 4666 
z
" transform="scale(0.015625)"/>
      </defs>
      <use xlink:href="#DejaVuSans-50"/>
      <use xlink:href="#DejaVuSans-72" transform="translate(58.552734 0)"/>
      <use xlink:href="#DejaVuSans-65" transform="translate(97.416016 0)"/>
      <use xlink:href="#DejaVuSans-64" transform="translate(158.939453 0)"/>
      <use xlink:href="#DejaVuSans-69" transform="translate(222.416016 0)"/>
      <use xlink:href="#DejaVuSans-63" transform="translate(250.199219 0)"/>
      <use xlink:href="#DejaVuSans-74" transform="translate(305.179688 0)"/>
      <use xlink:href="#DejaVuSans-65" transform="translate(344.388672 0)"/>
      <use xlink:href="#DejaVuSans-64" transform="translate(405.912109 0)"/>
      <use xlink:href="#DejaVuSans-20" transform="translate(469.388672 0)"/>
      <use xlink:href="#DejaVuSans-52" transform="translate(501.175781 0)"/>
      <use xlink:href="#DejaVuSans-65" transform="translate(566.158203 0)"/>
      <use xlink:href="#DejaVuSans-61" transform="translate(627.681641 0)"/>
      <use xlink:href="#DejaVuSans-64" transform="translate(688.960938 0)"/>
      <use xlink:href="#DejaVuSans-69" transform="translate(752.4375 0)"/>
      <use xlink:href="#DejaVuSans-6e" transform="translate(780.220703 0)"/>
      <use xlink:href="#DejaVuSans-67" transform="translate(843.599609 0)"/>
      <use xlink:href="#DejaVuSans-20" transform="translate(907.076172 0)"/>
      <use xlink:href="#DejaVuSans-53" transform="translate(938.863281 0)"/>
      <use xlink:href="#DejaVuSans-63" transform="translate(1002.339844 0)"/>
      <use xlink:href="#DejaVuSans-6f" transform="translate(1057.320312 0)"/>
      <use xlink:href="#DejaVuSans-72" transform="translate(1118.501953 0)"/>
      <use xlink:href="#DejaVuSans-65" transform="translate(1157.365234 0)"/>
     </g>
    </g>
   </g>
   <g id="patch_3">
    <path d="M 46.965625 288.430125 
L 46.965625 22.318125 
" style="fill: none; stroke: #000000; stroke-width: 0.8; stroke-linejoin: miter; stroke-linecap: square"/>
   </g>
   <g id="patch_4">
    <path d="M 404.085625 288.430125 
L 404.085625 22.318125 
" style="fill: none; stroke: #000000; stroke-width: 0.8; stroke-linejoin: miter; stroke-linecap: square"/>
   </g>
   <g id="patch_5">
    <path d="M 46.965625 288.430125 
L 404.085625 288.430125 
" style="fill: none; stroke: #000000; stroke-width: 0.8; stroke-linejoin: miter; stroke-linecap: square"/>
   </g>
   <g id="patch_6">
    <path d="M 46.965625 22.318125 
L 404.085625 22.318125 
" style="fill: none; stroke: #000000; stroke-width: 0.8; stroke-linejoin: miter; stroke-linecap: square"/>
   </g>
   <g id="text_19">
    <!-- Actual Score vs Predicted Score -->
    <g transform="translate(130.654375 16.318125) scale(0.12 -0.12)">
     <defs>
      <path id="DejaVuSans-76" d="M 191 3500 
L 800 3500 
L 1894 563 
L 2988 3500 
L 3597 3500 
L 2284 0 
L 1503 0 
L 191 3500 
z
" transform="scale(0.015625)"/>
      <path id="DejaVuSans-73" d="M 2834 3397 
L 2834 2853 
Q 2591 2978 2328 3040 
Q 2066 3103 1784 3103 
Q 1356 3103 1142 2972 
Q 928 2841 928 2578 
Q 928 2378 1081 2264 
Q 1234 2150 1697 2047 
L 1894 2003 
Q 2506 1872 2764 1633 
Q 3022 1394 3022 966 
Q 3022 478 2636 193 
Q 2250 -91 1575 -91 
Q 1294 -91 989 -36 
Q 684 19 347 128 
L 347 722 
Q 666 556 975 473 
Q 1284 391 1588 391 
Q 1994 391 2212 530 
Q 2431 669 2431 922 
Q 2431 1156 2273 1281 
Q 2116 1406 1581 1522 
L 1381 1569 
Q 847 1681 609 1914 
Q 372 2147 372 2553 
Q 372 3047 722 3315 
Q 1072 3584 1716 3584 
Q 2034 3584 2315 3537 
Q 2597 3491 2834 3397 
z
" transform="scale(0.015625)"/>
     </defs>
     <use xlink:href="#DejaVuSans-41"/>
     <use xlink:href="#DejaVuSans-63" transform="translate(66.658203 0)"/>
     <use xlink:href="#DejaVuSans-74" transform="translate(121.638672 0)"/>
     <use xlink:href="#DejaVuSans-75" transform="translate(160.847656 0)"/>
     <use xlink:href="#DejaVuSans-61" transform="translate(224.226562 0)"/>
     <use xlink:href="#DejaVuSans-6c" transform="translate(285.505859 0)"/>
     <use xlink:href="#DejaVuSans-20" transform="translate(313.289062 0)"/>
     <use xlink:href="#DejaVuSans-53" transform="translate(345.076172 0)"/>
     <use xlink:href="#DejaVuSans-63" transform="translate(408.552734 0)"/>
     <use xlink:href="#DejaVuSans-6f" transform="translate(463.533203 0)"/>
     <use xlink:href="#DejaVuSans-72" transform="translate(524.714844 0)"/>
     <use xlink:href="#DejaVuSans-65" transform="translate(563.578125 0)"/>
     <use xlink:href="#DejaVuSans-20" transform="translate(625.101562 0)"/>
     <use xlink:href="#DejaVuSans-76" transform="translate(656.888672 0)"/>
     <use xlink:href="#DejaVuSans-73" transform="translate(716.068359 0)"/>
     <use xlink:href="#DejaVuSans-20" transform="translate(768.167969 0)"/>
     <use xlink:href="#DejaVuSans-50" transform="translate(799.955078 0)"/>
     <use xlink:href="#DejaVuSans-72" transform="translate(858.507812 0)"/>
     <use xlink:href="#DejaVuSans-65" transform="translate(897.371094 0)"/>
     <use xlink:href="#DejaVuSans-64" transform="translate(958.894531 0)"/>
     <use xlink:href="#DejaVuSans-69" transform="translate(1022.371094 0)"/>
     <use xlink:href="#DejaVuSans-63" transform="translate(1050.154297 0)"/>
     <use xlink:href="#DejaVuSans-74" transform="translate(1105.134766 0)"/>
     <use xlink:href="#DejaVuSans-65" transform="translate(1144.34375 0)"/>
     <use xlink:href="#DejaVuSans-64" transform="translate(1205.867188 0)"/>
     <use xlink:href="#DejaVuSans-20" transform="translate(1269.34375 0)"/>
     <use xlink:href="#DejaVuSans-53" transform="translate(1301.130859 0)"/>
     <use xlink:href="#DejaVuSans-63" transform="translate(1364.607422 0)"/>
     <use xlink:href="#DejaVuSans-6f" transform="translate(1419.587891 0)"/>
     <use xlink:href="#DejaVuSans-72" transform="translate(1480.769531 0)"/>
     <use xlink:href="#DejaVuSans-65" transform="translate(1519.632812 0)"/>
    </g>
   </g>
  </g>
 </g>
 <defs>
  <clipPath id="p4fe8f35799">
   <rect x="46.965625" y="22.318125" width="357.12" height="266.112"/>
  </clipPath>
 </defs>
</svg>
