<?xml version="1.0" encoding="utf-8" standalone="no"?>
<!DOCTYPE svg PUBLIC "-//W3C//DTD SVG 1.1//EN"
  "http://www.w3.org/Graphics/SVG/1.1/DTD/svg11.dtd">
<svg xmlns:xlink="http://www.w3.org/1999/xlink" width="413.302812pt" height="325.986375pt" viewBox="0 0 413.302812 325.986375" xmlns="http://www.w3.org/2000/svg" version="1.1">
 <metadata>
  <rdf:RDF xmlns:dc="http://purl.org/dc/elements/1.1/" xmlns:cc="http://creativecommons.org/ns#" xmlns:rdf="http://www.w3.org/1999/02/22-rdf-syntax-ns#">
   <cc:Work>
    <dc:type rdf:resource="http://purl.org/dc/dcmitype/StillImage"/>
    <dc:date>2026-02-15T13:57:32.074070</dc:date>
    <dc:format>image/svg+xml</dc:format>
    <dc:creator>
     <cc:Agent>
      <dc:title>Matplotlib v3.10.8, https://matplotlib.org/</dc:title>
     </cc:Agent>
    </dc:creator>
   </cc:Work>
  </rdf:RDF>
 </metadata>
 <defs>
  <style type="text/css">*{stroke-linejoin: round; stroke-linecap: butt}</style>
 </defs>
 <g id="figure_1">
  <g id="patch_1">
   <path d="M 0 325.986375 
L 413.302812 325.986375 
L 413.302812 0 
L 0 0 
z
" style="fill: #edd2f7"/>
  </g>
  <g id="axes_1">
   <g id="patch_2">
    <path d="M 48.982813 288.430125 
L 406.102813 288.430125 
L 406.102813 22.318125 
L 48.982813 22.318125 
z
" style="fill: #f7e3fa"/>
   </g>
   <g id="PathCollection_1">
    <defs>
     <path id="m59fedde58c" d="M 0 3 
C 0.795609 3 1.55874 2.683901 2.12132 2.12132 
C 2.683901 1.55874 3 0.795609 3 0 
C 3 -0.795609 2.683901 -1.55874 2.12132 -2.12132 
C 1.55874 -2.683901 0.795609 -3 0 -3 
C -0.795609 -3 -1.55874 -2.683901 -2.12132 -2.12132 
C -2.683901 -1.55874 -3 -0.795609 -3 0 
C -3 0.795609 -2.683901 1.55874 -2.12132 2.12132 
C -1.55874 2.683901 -0.795609 3 0 3 
z
" style="stroke: #673ab7"/>
    </defs>
    <g clip-path="url(#p0812795175)">
     <use xlink:href="#m59fedde58c" x="177.021075" y="123.95275" style="fill: #673ab7; stroke: #673ab7"/>
     <use xlink:href="#m59fedde58c" x="305.980789" y="98.356174" style="fill: #673ab7; stroke: #673ab7"/>
     <use xlink:href="#m59fedde58c" x="234.856498" y="199.771177" style="fill: #673ab7; stroke: #673ab7"/>
     <use xlink:href="#m59fedde58c" x="249.614833" y="189.41388" style="fill: #673ab7; stroke: #673ab7"/>
     <use xlink:href="#m59fedde58c" x="280.591358" y="150.180661" style="fill: #673ab7; stroke: #673ab7"/>
     <use xlink:href="#m59fedde58c" x="224.749266" y="242.418963" style="fill: #673ab7; stroke: #673ab7"/>
     <use xlink:href="#m59fedde58c" x="353.044536" y="182.612076" style="fill: #673ab7; stroke: #673ab7"/>
     <use xlink:href="#m59fedde58c" x="242.829819" y="206.835832" style="fill: #673ab7; stroke: #673ab7"/>
     <use xlink:href="#m59fedde58c" x="130.228874" y="83.926011" style="fill: #673ab7; stroke: #673ab7"/>
     <use xlink:href="#m59fedde58c" x="333.50413" y="105.862239" style="fill: #673ab7; stroke: #673ab7"/>
     <use xlink:href="#m59fedde58c" x="325.390229" y="142.097964" style="fill: #673ab7; stroke: #673ab7"/>
     <use xlink:href="#m59fedde58c" x="183.937056" y="161.347444" style="fill: #673ab7; stroke: #673ab7"/>
     <use xlink:href="#m59fedde58c" x="292.953851" y="112.615412" style="fill: #673ab7; stroke: #673ab7"/>
     <use xlink:href="#m59fedde58c" x="211.591363" y="92.818562" style="fill: #673ab7; stroke: #673ab7"/>
     <use xlink:href="#m59fedde58c" x="246.685514" y="182.812263" style="fill: #673ab7; stroke: #673ab7"/>
     <use xlink:href="#m59fedde58c" x="245.356627" y="114.391641" style="fill: #673ab7; stroke: #673ab7"/>
     <use xlink:href="#m59fedde58c" x="321.534534" y="155.217235" style="fill: #673ab7; stroke: #673ab7"/>
     <use xlink:href="#m59fedde58c" x="305.718857" y="174.095971" style="fill: #673ab7; stroke: #673ab7"/>
     <use xlink:href="#m59fedde58c" x="250.017345" y="190.320994" style="fill: #673ab7; stroke: #673ab7"/>
     <use xlink:href="#m59fedde58c" x="258.524144" y="176.779315" style="fill: #673ab7; stroke: #673ab7"/>
     <use xlink:href="#m59fedde58c" x="321.937046" y="156.124349" style="fill: #673ab7; stroke: #673ab7"/>
     <use xlink:href="#m59fedde58c" x="266.235534" y="270.488067" style="fill: #673ab7; stroke: #673ab7"/>
     <use xlink:href="#m59fedde58c" x="251.074686" y="258.129651" style="fill: #673ab7; stroke: #673ab7"/>
     <use xlink:href="#m59fedde58c" x="251.608164" y="84.863125" style="fill: #673ab7; stroke: #673ab7"/>
     <use xlink:href="#m59fedde58c" x="269.286205" y="168.320172" style="fill: #673ab7; stroke: #673ab7"/>
     <use xlink:href="#m59fedde58c" x="327.917036" y="125.983868" style="fill: #673ab7; stroke: #673ab7"/>
     <use xlink:href="#m59fedde58c" x="284.175507" y="125.545126" style="fill: #673ab7; stroke: #673ab7"/>
     <use xlink:href="#m59fedde58c" x="240.172045" y="179.037582" style="fill: #673ab7; stroke: #673ab7"/>
     <use xlink:href="#m59fedde58c" x="301.058139" y="76.358019" style="fill: #673ab7; stroke: #673ab7"/>
     <use xlink:href="#m59fedde58c" x="306.252335" y="131.681038" style="fill: #673ab7; stroke: #673ab7"/>
     <use xlink:href="#m59fedde58c" x="361.953846" y="82.743116" style="fill: #673ab7; stroke: #673ab7"/>
     <use xlink:href="#m59fedde58c" x="235.259009" y="222.48689" style="fill: #673ab7; stroke: #673ab7"/>
     <use xlink:href="#m59fedde58c" x="161.738876" y="122.225152" style="fill: #673ab7; stroke: #673ab7"/>
     <use xlink:href="#m59fedde58c" x="226.61163" y="213.903155" style="fill: #673ab7; stroke: #673ab7"/>
     <use xlink:href="#m59fedde58c" x="222.091492" y="214.620713" style="fill: #673ab7; stroke: #673ab7"/>
     <use xlink:href="#m59fedde58c" x="245.759139" y="137.107354" style="fill: #673ab7; stroke: #673ab7"/>
     <use xlink:href="#m59fedde58c" x="359.296073" y="153.08356" style="fill: #673ab7; stroke: #673ab7"/>
     <use xlink:href="#m59fedde58c" x="159.474" y="269.781138" style="fill: #673ab7; stroke: #673ab7"/>
     <use xlink:href="#m59fedde58c" x="381.896764" y="138.59147" style="fill: #673ab7; stroke: #673ab7"/>
     <use xlink:href="#m59fedde58c" x="263.306214" y="231.173551" style="fill: #673ab7; stroke: #673ab7"/>
     <use xlink:href="#m59fedde58c" x="288.695645" y="201.157663" style="fill: #673ab7; stroke: #673ab7"/>
     <use xlink:href="#m59fedde58c" x="173.698858" y="160.082883" style="fill: #673ab7; stroke: #673ab7"/>
     <use xlink:href="#m59fedde58c" x="349.98425" y="197.523908" style="fill: #673ab7; stroke: #673ab7"/>
     <use xlink:href="#m59fedde58c" x="280.591358" y="150.180661" style="fill: #673ab7; stroke: #673ab7"/>
     <use xlink:href="#m59fedde58c" x="279.262471" y="179.898733" style="fill: #673ab7; stroke: #673ab7"/>
     <use xlink:href="#m59fedde58c" x="345.866624" y="210.052881" style="fill: #673ab7; stroke: #673ab7"/>
     <use xlink:href="#m59fedde58c" x="209.064555" y="152.549855" style="fill: #673ab7; stroke: #673ab7"/>
     <use xlink:href="#m59fedde58c" x="144.05122" y="180.502329" style="fill: #673ab7; stroke: #673ab7"/>
     <use xlink:href="#m59fedde58c" x="333.897027" y="106.747686" style="fill: #673ab7; stroke: #673ab7"/>
     <use xlink:href="#m59fedde58c" x="184.601499" y="206.462054" style="fill: #673ab7; stroke: #673ab7"/>
     <use xlink:href="#m59fedde58c" x="271.551081" y="217.041574" style="fill: #673ab7; stroke: #673ab7"/>
     <use xlink:href="#m59fedde58c" x="204.544417" y="185.980312" style="fill: #673ab7; stroke: #673ab7"/>
     <use xlink:href="#m59fedde58c" x="249.745799" y="189.709029" style="fill: #673ab7; stroke: #673ab7"/>
     <use xlink:href="#m59fedde58c" x="243.101365" y="109.309104" style="fill: #673ab7; stroke: #673ab7"/>
     <use xlink:href="#m59fedde58c" x="298.540945" y="59.780884" style="fill: #673ab7; stroke: #673ab7"/>
     <use xlink:href="#m59fedde58c" x="127.299554" y="240.888884" style="fill: #673ab7; stroke: #673ab7"/>
     <use xlink:href="#m59fedde58c" x="305.054414" y="216.215756" style="fill: #673ab7; stroke: #673ab7"/>
     <use xlink:href="#m59fedde58c" x="269.155239" y="244.355118" style="fill: #673ab7; stroke: #673ab7"/>
     <use xlink:href="#m59fedde58c" x="340.682042" y="154.751529" style="fill: #673ab7; stroke: #673ab7"/>
     <use xlink:href="#m59fedde58c" x="171.443596" y="155.000346" style="fill: #673ab7; stroke: #673ab7"/>
     <use xlink:href="#m59fedde58c" x="296.014137" y="163.129375" style="fill: #673ab7; stroke: #673ab7"/>
     <use xlink:href="#m59fedde58c" x="359.82955" y="176.094423" style="fill: #673ab7; stroke: #673ab7"/>
     <use xlink:href="#m59fedde58c" x="140.598038" y="183.624415" style="fill: #673ab7; stroke: #673ab7"/>
     <use xlink:href="#m59fedde58c" x="207.9976" y="139.241029" style="fill: #673ab7; stroke: #673ab7"/>
     <use xlink:href="#m59fedde58c" x="239.376636" y="144.532122" style="fill: #673ab7; stroke: #673ab7"/>
     <use xlink:href="#m59fedde58c" x="186.725795" y="156.727945" style="fill: #673ab7; stroke: #673ab7"/>
     <use xlink:href="#m59fedde58c" x="210.524408" y="177.648429" style="fill: #673ab7; stroke: #673ab7"/>
     <use xlink:href="#m59fedde58c" x="293.084817" y="102.006262" style="fill: #673ab7; stroke: #673ab7"/>
     <use xlink:href="#m59fedde58c" x="273.010934" y="89.479956" style="fill: #673ab7; stroke: #673ab7"/>
     <use xlink:href="#m59fedde58c" x="259.712451" y="146.744426" style="fill: #673ab7; stroke: #673ab7"/>
     <use xlink:href="#m59fedde58c" x="234.061088" y="34.414125" style="fill: #673ab7; stroke: #673ab7"/>
     <use xlink:href="#m59fedde58c" x="126.504145" y="173.670526" style="fill: #673ab7; stroke: #673ab7"/>
     <use xlink:href="#m59fedde58c" x="218.235797" y="107.792691" style="fill: #673ab7; stroke: #673ab7"/>
     <use xlink:href="#m59fedde58c" x="228.071483" y="195.384531" style="fill: #673ab7; stroke: #673ab7"/>
     <use xlink:href="#m59fedde58c" x="115.73247" y="193.012301" style="fill: #673ab7; stroke: #673ab7"/>
     <use xlink:href="#m59fedde58c" x="220.098162" y="155.606978" style="fill: #673ab7; stroke: #673ab7"/>
     <use xlink:href="#m59fedde58c" x="147.77595" y="68.949215" style="fill: #673ab7; stroke: #673ab7"/>
     <use xlink:href="#m59fedde58c" x="157.218738" y="210.177105" style="fill: #673ab7; stroke: #673ab7"/>
     <use xlink:href="#m59fedde58c" x="131.024283" y="151.144369" style="fill: #673ab7; stroke: #673ab7"/>
     <use xlink:href="#m59fedde58c" x="356.366753" y="179.194841" style="fill: #673ab7; stroke: #673ab7"/>
     <use xlink:href="#m59fedde58c" x="221.960526" y="181.612666" style="fill: #673ab7; stroke: #673ab7"/>
     <use xlink:href="#m59fedde58c" x="138.333161" y="134.903013" style="fill: #673ab7; stroke: #673ab7"/>
     <use xlink:href="#m59fedde58c" x="173.436926" y="159.492585" style="fill: #673ab7; stroke: #673ab7"/>
     <use xlink:href="#m59fedde58c" x="235.389975" y="168.260543" style="fill: #673ab7; stroke: #673ab7"/>
     <use xlink:href="#m59fedde58c" x="354.775934" y="175.609717" style="fill: #673ab7; stroke: #673ab7"/>
     <use xlink:href="#m59fedde58c" x="246.95706" y="139.807031" style="fill: #673ab7; stroke: #673ab7"/>
     <use xlink:href="#m59fedde58c" x="295.480659" y="161.927112" style="fill: #673ab7; stroke: #673ab7"/>
     <use xlink:href="#m59fedde58c" x="302.125094" y="122.379744" style="fill: #673ab7; stroke: #673ab7"/>
     <use xlink:href="#m59fedde58c" x="306.514266" y="164.984234" style="fill: #673ab7; stroke: #673ab7"/>
     <use xlink:href="#m59fedde58c" x="181.007736" y="154.745826" style="fill: #673ab7; stroke: #673ab7"/>
     <use xlink:href="#m59fedde58c" x="248.95039" y="111.586371" style="fill: #673ab7; stroke: #673ab7"/>
     <use xlink:href="#m59fedde58c" x="282.453722" y="143.473451" style="fill: #673ab7; stroke: #673ab7"/>
     <use xlink:href="#m59fedde58c" x="200.819688" y="221.20333" style="fill: #673ab7; stroke: #673ab7"/>
     <use xlink:href="#m59fedde58c" x="387.876755" y="141.163886" style="fill: #673ab7; stroke: #673ab7"/>
     <use xlink:href="#m59fedde58c" x="386.01439" y="169.679695" style="fill: #673ab7; stroke: #673ab7"/>
     <use xlink:href="#m59fedde58c" x="222.896516" y="161.913446" style="fill: #673ab7; stroke: #673ab7"/>
     <use xlink:href="#m59fedde58c" x="323.004001" y="104.00738" style="fill: #673ab7; stroke: #673ab7"/>
     <use xlink:href="#m59fedde58c" x="327.121627" y="156.904204" style="fill: #673ab7; stroke: #673ab7"/>
     <use xlink:href="#m59fedde58c" x="307.047744" y="231.612294" style="fill: #673ab7; stroke: #673ab7"/>
     <use xlink:href="#m59fedde58c" x="241.369966" y="159.92866" style="fill: #673ab7; stroke: #673ab7"/>
     <use xlink:href="#m59fedde58c" x="173.970404" y="149.79055" style="fill: #673ab7; stroke: #673ab7"/>
     <use xlink:href="#m59fedde58c" x="209.859964" y="208.863914" style="fill: #673ab7; stroke: #673ab7"/>
     <use xlink:href="#m59fedde58c" x="189.393183" y="119.122066" style="fill: #673ab7; stroke: #673ab7"/>
     <use xlink:href="#m59fedde58c" x="225.282743" y="276.334125" style="fill: #673ab7; stroke: #673ab7"/>
     <use xlink:href="#m59fedde58c" x="277.933584" y="165.999608" style="fill: #673ab7; stroke: #673ab7"/>
     <use xlink:href="#m59fedde58c" x="350.92024" y="134.207491" style="fill: #673ab7; stroke: #673ab7"/>
     <use xlink:href="#m59fedde58c" x="192.453469" y="191.444629" style="fill: #673ab7; stroke: #673ab7"/>
     <use xlink:href="#m59fedde58c" x="212.255806" y="105.220274" style="fill: #673ab7; stroke: #673ab7"/>
     <use xlink:href="#m59fedde58c" x="286.973861" y="120.947294" style="fill: #673ab7; stroke: #673ab7"/>
     <use xlink:href="#m59fedde58c" x="234.725532" y="123.145933" style="fill: #673ab7; stroke: #673ab7"/>
     <use xlink:href="#m59fedde58c" x="135.010944" y="181.937445" style="fill: #673ab7; stroke: #673ab7"/>
     <use xlink:href="#m59fedde58c" x="326.58815" y="188.414838" style="fill: #673ab7; stroke: #673ab7"/>
     <use xlink:href="#m59fedde58c" x="113.608174" y="166.416315" style="fill: #673ab7; stroke: #673ab7"/>
     <use xlink:href="#m59fedde58c" x="238.047749" y="196.058793" style="fill: #673ab7; stroke: #673ab7"/>
     <use xlink:href="#m59fedde58c" x="182.205657" y="124.732605" style="fill: #673ab7; stroke: #673ab7"/>
     <use xlink:href="#m59fedde58c" x="217.440388" y="182.330224" style="fill: #673ab7; stroke: #673ab7"/>
     <use xlink:href="#m59fedde58c" x="253.339562" y="197.808059" style="fill: #673ab7; stroke: #673ab7"/>
     <use xlink:href="#m59fedde58c" x="372.453976" y="139.119471" style="fill: #673ab7; stroke: #673ab7"/>
     <use xlink:href="#m59fedde58c" x="244.963729" y="168.02769" style="fill: #673ab7; stroke: #673ab7"/>
     <use xlink:href="#m59fedde58c" x="231.53428" y="170.475514" style="fill: #673ab7; stroke: #673ab7"/>
     <use xlink:href="#m59fedde58c" x="290.960521" y="151.74037" style="fill: #673ab7; stroke: #673ab7"/>
     <use xlink:href="#m59fedde58c" x="257.195257" y="195.593088" style="fill: #673ab7; stroke: #673ab7"/>
     <use xlink:href="#m59fedde58c" x="295.078148" y="106.4985" style="fill: #673ab7; stroke: #673ab7"/>
     <use xlink:href="#m59fedde58c" x="281.920245" y="153.175487" style="fill: #673ab7; stroke: #673ab7"/>
     <use xlink:href="#m59fedde58c" x="292.289408" y="122.022298" style="fill: #673ab7; stroke: #673ab7"/>
     <use xlink:href="#m59fedde58c" x="65.21554" y="199.112879" style="fill: #673ab7; stroke: #673ab7"/>
     <use xlink:href="#m59fedde58c" x="194.306219" y="162.907153" style="fill: #673ab7; stroke: #673ab7"/>
     <use xlink:href="#m59fedde58c" x="223.822891" y="174.905456" style="fill: #673ab7; stroke: #673ab7"/>
     <use xlink:href="#m59fedde58c" x="107.225671" y="228.362579" style="fill: #673ab7; stroke: #673ab7"/>
     <use xlink:href="#m59fedde58c" x="284.316087" y="147.670541" style="fill: #673ab7; stroke: #673ab7"/>
     <use xlink:href="#m59fedde58c" x="178.88344" y="160.862738" style="fill: #673ab7; stroke: #673ab7"/>
     <use xlink:href="#m59fedde58c" x="299.729252" y="84.267492" style="fill: #673ab7; stroke: #673ab7"/>
     <use xlink:href="#m59fedde58c" x="266.3665" y="118.123025" style="fill: #673ab7; stroke: #673ab7"/>
     <use xlink:href="#m59fedde58c" x="133.017614" y="133.828009" style="fill: #673ab7; stroke: #673ab7"/>
     <use xlink:href="#m59fedde58c" x="323.668444" y="116.409092" style="fill: #673ab7; stroke: #673ab7"/>
     <use xlink:href="#m59fedde58c" x="170.245675" y="108.683472" style="fill: #673ab7; stroke: #673ab7"/>
     <use xlink:href="#m59fedde58c" x="296.014137" y="86.79928" style="fill: #673ab7; stroke: #673ab7"/>
     <use xlink:href="#m59fedde58c" x="389.870085" y="145.656125" style="fill: #673ab7; stroke: #673ab7"/>
     <use xlink:href="#m59fedde58c" x="198.161914" y="149.787882" style="fill: #673ab7; stroke: #673ab7"/>
     <use xlink:href="#m59fedde58c" x="258.786076" y="79.230919" style="fill: #673ab7; stroke: #673ab7"/>
     <use xlink:href="#m59fedde58c" x="72.795964" y="205.292088" style="fill: #673ab7; stroke: #673ab7"/>
     <use xlink:href="#m59fedde58c" x="304.923448" y="128.686212" style="fill: #673ab7; stroke: #673ab7"/>
     <use xlink:href="#m59fedde58c" x="110.285957" y="148.024951" style="fill: #673ab7; stroke: #673ab7"/>
     <use xlink:href="#m59fedde58c" x="227.678586" y="118.168988" style="fill: #673ab7; stroke: #673ab7"/>
     <use xlink:href="#m59fedde58c" x="263.175248" y="110.93111" style="fill: #673ab7; stroke: #673ab7"/>
     <use xlink:href="#m59fedde58c" x="255.061347" y="190.784032" style="fill: #673ab7; stroke: #673ab7"/>
     <use xlink:href="#m59fedde58c" x="351.182171" y="167.510687" style="fill: #673ab7; stroke: #673ab7"/>
     <use xlink:href="#m59fedde58c" x="349.98425" y="208.428208" style="fill: #673ab7; stroke: #673ab7"/>
     <use xlink:href="#m59fedde58c" x="154.953862" y="172.360003" style="fill: #673ab7; stroke: #673ab7"/>
     <use xlink:href="#m59fedde58c" x="135.010944" y="94.703051" style="fill: #673ab7; stroke: #673ab7"/>
     <use xlink:href="#m59fedde58c" x="225.816221" y="135.780497" style="fill: #673ab7; stroke: #673ab7"/>
     <use xlink:href="#m59fedde58c" x="232.863167" y="140.757442" style="fill: #673ab7; stroke: #673ab7"/>
     <use xlink:href="#m59fedde58c" x="293.880227" y="103.798824" style="fill: #673ab7; stroke: #673ab7"/>
     <use xlink:href="#m59fedde58c" x="239.24567" y="111.524075" style="fill: #673ab7; stroke: #673ab7"/>
     <use xlink:href="#m59fedde58c" x="213.715659" y="163.031746" style="fill: #673ab7; stroke: #673ab7"/>
     <use xlink:href="#m59fedde58c" x="271.682047" y="119.198029" style="fill: #673ab7; stroke: #673ab7"/>
     <use xlink:href="#m59fedde58c" x="318.745794" y="148.932434" style="fill: #673ab7; stroke: #673ab7"/>
     <use xlink:href="#m59fedde58c" x="224.356368" y="154.299121" style="fill: #673ab7; stroke: #673ab7"/>
     <use xlink:href="#m59fedde58c" x="279.393437" y="82.055188" style="fill: #673ab7; stroke: #673ab7"/>
     <use xlink:href="#m59fedde58c" x="351.051205" y="112.694041" style="fill: #673ab7; stroke: #673ab7"/>
     <use xlink:href="#m59fedde58c" x="291.091487" y="152.03552" style="fill: #673ab7; stroke: #673ab7"/>
     <use xlink:href="#m59fedde58c" x="191.114968" y="90.289441" style="fill: #673ab7; stroke: #673ab7"/>
     <use xlink:href="#m59fedde58c" x="302.658571" y="101.773409" style="fill: #673ab7; stroke: #673ab7"/>
     <use xlink:href="#m59fedde58c" x="188.326228" y="160.334736" style="fill: #673ab7; stroke: #673ab7"/>
     <use xlink:href="#m59fedde58c" x="206.135235" y="124.13964" style="fill: #673ab7; stroke: #673ab7"/>
     <use xlink:href="#m59fedde58c" x="271.813013" y="75.87598" style="fill: #673ab7; stroke: #673ab7"/>
     <use xlink:href="#m59fedde58c" x="212.789284" y="171.848334" style="fill: #673ab7; stroke: #673ab7"/>
     <use xlink:href="#m59fedde58c" x="156.68526" y="198.070542" style="fill: #673ab7; stroke: #673ab7"/>
     <use xlink:href="#m59fedde58c" x="211.057885" y="167.946393" style="fill: #673ab7; stroke: #673ab7"/>
     <use xlink:href="#m59fedde58c" x="252.272607" y="119.073436" style="fill: #673ab7; stroke: #673ab7"/>
     <use xlink:href="#m59fedde58c" x="213.051215" y="128.821435" style="fill: #673ab7; stroke: #673ab7"/>
     <use xlink:href="#m59fedde58c" x="302.527606" y="166.904056" style="fill: #673ab7; stroke: #673ab7"/>
     <use xlink:href="#m59fedde58c" x="158.014147" y="179.256769" style="fill: #673ab7; stroke: #673ab7"/>
     <use xlink:href="#m59fedde58c" x="318.474248" y="126.51187" style="fill: #673ab7; stroke: #673ab7"/>
     <use xlink:href="#m59fedde58c" x="274.470787" y="103.674231" style="fill: #673ab7; stroke: #673ab7"/>
     <use xlink:href="#m59fedde58c" x="266.3665" y="118.123025" style="fill: #673ab7; stroke: #673ab7"/>
     <use xlink:href="#m59fedde58c" x="190.450524" y="132.409226" style="fill: #673ab7; stroke: #673ab7"/>
     <use xlink:href="#m59fedde58c" x="192.050957" y="201.441813" style="fill: #673ab7; stroke: #673ab7"/>
     <use xlink:href="#m59fedde58c" x="182.608169" y="125.63972" style="fill: #673ab7; stroke: #673ab7"/>
     <use xlink:href="#m59fedde58c" x="294.413704" y="115.905387" style="fill: #673ab7; stroke: #673ab7"/>
     <use xlink:href="#m59fedde58c" x="247.218991" y="162.205928" style="fill: #673ab7; stroke: #673ab7"/>
     <use xlink:href="#m59fedde58c" x="310.238995" y="53.43112" style="fill: #673ab7; stroke: #673ab7"/>
     <use xlink:href="#m59fedde58c" x="296.809546" y="175.826237" style="fill: #673ab7; stroke: #673ab7"/>
     <use xlink:href="#m59fedde58c" x="286.83328" y="55.204682" style="fill: #673ab7; stroke: #673ab7"/>
     <use xlink:href="#m59fedde58c" x="307.843153" y="157.07476" style="fill: #673ab7; stroke: #673ab7"/>
     <use xlink:href="#m59fedde58c" x="213.453727" y="129.728549" style="fill: #673ab7; stroke: #673ab7"/>
     <use xlink:href="#m59fedde58c" x="214.91358" y="133.018524" style="fill: #673ab7; stroke: #673ab7"/>
     <use xlink:href="#m59fedde58c" x="304.520936" y="116.874798" style="fill: #673ab7; stroke: #673ab7"/>
     <use xlink:href="#m59fedde58c" x="218.104831" y="118.401841" style="fill: #673ab7; stroke: #673ab7"/>
     <use xlink:href="#m59fedde58c" x="303.987458" y="192.002629" style="fill: #673ab7; stroke: #673ab7"/>
     <use xlink:href="#m59fedde58c" x="221.82956" y="224.934714" style="fill: #673ab7; stroke: #673ab7"/>
     <use xlink:href="#m59fedde58c" x="213.584693" y="162.736597" style="fill: #673ab7; stroke: #673ab7"/>
     <use xlink:href="#m59fedde58c" x="281.920245" y="87.749691" style="fill: #673ab7; stroke: #673ab7"/>
     <use xlink:href="#m59fedde58c" x="178.88344" y="204.479935" style="fill: #673ab7; stroke: #673ab7"/>
     <use xlink:href="#m59fedde58c" x="240.836488" y="158.726396" style="fill: #673ab7; stroke: #673ab7"/>
     <use xlink:href="#m59fedde58c" x="289.360088" y="82.707783" style="fill: #673ab7; stroke: #673ab7"/>
     <use xlink:href="#m59fedde58c" x="233.527611" y="185.872052" style="fill: #673ab7; stroke: #673ab7"/>
     <use xlink:href="#m59fedde58c" x="206.799678" y="136.541352" style="fill: #673ab7; stroke: #673ab7"/>
     <use xlink:href="#m59fedde58c" x="308.114699" y="124.973828" style="fill: #673ab7; stroke: #673ab7"/>
     <use xlink:href="#m59fedde58c" x="185.527874" y="241.262663" style="fill: #673ab7; stroke: #673ab7"/>
    </g>
   </g>
   <g id="matplotlib.axis_1">
    <g id="xtick_1">
     <g id="line2d_1">
      <defs>
       <path id="m31deff6372" d="M 0 0 
L 0 3.5 
" style="stroke: #000000; stroke-width: 0.8"/>
      </defs>
      <g>
       <use xlink:href="#m31deff6372" x="54.642757" y="288.430125" style="stroke: #000000; stroke-width: 0.8"/>
      </g>
     </g>
     <g id="text_1">
      <!-- 30 -->
      <g transform="translate(48.280257 303.028562) scale(0.1 -0.1)">
       <defs>
        <path id="DejaVuSans-33" d="M 2597 2516 
Q 3050 2419 3304 2112 
Q 3559 1806 3559 1356 
Q 3559 666 3084 287 
Q 2609 -91 1734 -91 
Q 1441 -91 1130 -33 
Q 819 25 488 141 
L 488 750 
Q 750 597 1062 519 
Q 1375 441 1716 441 
Q 2309 441 2620 675 
Q 2931 909 2931 1356 
Q 2931 1769 2642 2001 
Q 2353 2234 1838 2234 
L 1294 2234 
L 1294 2753 
L 1863 2753 
Q 2328 2753 2575 2939 
Q 2822 3125 2822 3475 
Q 2822 3834 2567 4026 
Q 2313 4219 1838 4219 
Q 1578 4219 1281 4162 
Q 984 4106 628 3988 
L 628 4550 
Q 988 4650 1302 4700 
Q 1616 4750 1894 4750 
Q 2613 4750 3031 4423 
Q 3450 4097 3450 3541 
Q 3450 3153 3228 2886 
Q 3006 2619 2597 2516 
z
" transform="scale(0.015625)"/>
        <path id="DejaVuSans-30" d="M 2034 4250 
Q 1547 4250 1301 3770 
Q 1056 3291 1056 2328 
Q 1056 1369 1301 889 
Q 1547 409 2034 409 
Q 2525 409 2770 889 
Q 3016 1369 3016 2328 
Q 3016 3291 2770 3770 
Q 2525 4250 2034 4250 
z
M 2034 4750 
Q 2819 4750 3233 4129 
Q 3647 3509 3647 2328 
Q 3647 1150 3233 529 
Q 2819 -91 2034 -91 
Q 1250 -91 836 529 
Q 422 1150 422 2328 
Q 422 3509 836 4129 
Q 1250 4750 2034 4750 
z
" transform="scale(0.015625)"/>
       </defs>
       <use xlink:href="#DejaVuSans-33"/>
       <use xlink:href="#DejaVuSans-30" transform="translate(63.623047 0)"/>
      </g>
     </g>
    </g>
    <g id="xtick_2">
     <g id="line2d_2">
      <g>
       <use xlink:href="#m31deff6372" x="103.028144" y="288.430125" style="stroke: #000000; stroke-width: 0.8"/>
      </g>
     </g>
     <g id="text_2">
      <!-- 40 -->
      <g transform="translate(96.665644 303.028562) scale(0.1 -0.1)">
       <defs>
        <path id="DejaVuSans-34" d="M 2419 4116 
L 825 1625 
L 2419 1625 
L 2419 4116 
z
M 2253 4666 
L 3047 4666 
L 3047 1625 
L 3713 1625 
L 3713 1100 
L 3047 1100 
L 3047 0 
L 2419 0 
L 2419 1100 
L 313 1100 
L 313 1709 
L 2253 4666 
z
" transform="scale(0.015625)"/>
       </defs>
       <use xlink:href="#DejaVuSans-34"/>
       <use xlink:href="#DejaVuSans-30" transform="translate(63.623047 0)"/>
      </g>
     </g>
    </g>
    <g id="xtick_3">
     <g id="line2d_3">
      <g>
       <use xlink:href="#m31deff6372" x="151.413531" y="288.430125" style="stroke: #000000; stroke-width: 0.8"/>
      </g>
     </g>
     <g id="text_3">
      <!-- 50 -->
      <g transform="translate(145.051031 303.028562) scale(0.1 -0.1)">
       <defs>
        <path id="DejaVuSans-35" d="M 691 4666 
L 3169 4666 
L 3169 4134 
L 1269 4134 
L 1269 2991 
Q 1406 3038 1543 3061 
Q 1681 3084 1819 3084 
Q 2600 3084 3056 2656 
Q 3513 2228 3513 1497 
Q 3513 744 3044 326 
Q 2575 -91 1722 -91 
Q 1428 -91 1123 -41 
Q 819 9 494 109 
L 494 744 
Q 775 591 1075 516 
Q 1375 441 1709 441 
Q 2250 441 2565 725 
Q 2881 1009 2881 1497 
Q 2881 1984 2565 2268 
Q 2250 2553 1709 2553 
Q 1456 2553 1204 2497 
Q 953 2441 691 2322 
L 691 4666 
z
" transform="scale(0.015625)"/>
       </defs>
       <use xlink:href="#DejaVuSans-35"/>
       <use xlink:href="#DejaVuSans-30" transform="translate(63.623047 0)"/>
      </g>
     </g>
    </g>
    <g id="xtick_4">
     <g id="line2d_4">
      <g>
       <use xlink:href="#m31deff6372" x="199.798917" y="288.430125" style="stroke: #000000; stroke-width: 0.8"/>
      </g>
     </g>
     <g id="text_4">
      <!-- 60 -->
      <g transform="translate(193.436417 303.028562) scale(0.1 -0.1)">
       <defs>
        <path id="DejaVuSans-36" d="M 2113 2584 
Q 1688 2584 1439 2293 
Q 1191 2003 1191 1497 
Q 1191 994 1439 701 
Q 1688 409 2113 409 
Q 2538 409 2786 701 
Q 3034 994 3034 1497 
Q 3034 2003 2786 2293 
Q 2538 2584 2113 2584 
z
M 3366 4563 
L 3366 3988 
Q 3128 4100 2886 4159 
Q 2644 4219 2406 4219 
Q 1781 4219 1451 3797 
Q 1122 3375 1075 2522 
Q 1259 2794 1537 2939 
Q 1816 3084 2150 3084 
Q 2853 3084 3261 2657 
Q 3669 2231 3669 1497 
Q 3669 778 3244 343 
Q 2819 -91 2113 -91 
Q 1303 -91 875 529 
Q 447 1150 447 2328 
Q 447 3434 972 4092 
Q 1497 4750 2381 4750 
Q 2619 4750 2861 4703 
Q 3103 4656 3366 4563 
z
" transform="scale(0.015625)"/>
       </defs>
       <use xlink:href="#DejaVuSans-36"/>
       <use xlink:href="#DejaVuSans-30" transform="translate(63.623047 0)"/>
      </g>
     </g>
    </g>
    <g id="xtick_5">
     <g id="line2d_5">
      <g>
       <use xlink:href="#m31deff6372" x="248.184304" y="288.430125" style="stroke: #000000; stroke-width: 0.8"/>
      </g>
     </g>
     <g id="text_5">
      <!-- 70 -->
      <g transform="translate(241.821804 303.028562) scale(0.1 -0.1)">
       <defs>
        <path id="DejaVuSans-37" d="M 525 4666 
L 3525 4666 
L 3525 4397 
L 1831 0 
L 1172 0 
L 2766 4134 
L 525 4134 
L 525 4666 
z
" transform="scale(0.015625)"/>
       </defs>
       <use xlink:href="#DejaVuSans-37"/>
       <use xlink:href="#DejaVuSans-30" transform="translate(63.623047 0)"/>
      </g>
     </g>
    </g>
    <g id="xtick_6">
     <g id="line2d_6">
      <g>
       <use xlink:href="#m31deff6372" x="296.56969" y="288.430125" style="stroke: #000000; stroke-width: 0.8"/>
      </g>
     </g>
     <g id="text_6">
      <!-- 80 -->
      <g transform="translate(290.20719 303.028562) scale(0.1 -0.1)">
       <defs>
        <path id="DejaVuSans-38" d="M 2034 2216 
Q 1584 2216 1326 1975 
Q 1069 1734 1069 1313 
Q 1069 891 1326 650 
Q 1584 409 2034 409 
Q 2484 409 2743 651 
Q 3003 894 3003 1313 
Q 3003 1734 2745 1975 
Q 2488 2216 2034 2216 
z
M 1403 2484 
Q 997 2584 770 2862 
Q 544 3141 544 3541 
Q 544 4100 942 4425 
Q 1341 4750 2034 4750 
Q 2731 4750 3128 4425 
Q 3525 4100 3525 3541 
Q 3525 3141 3298 2862 
Q 3072 2584 2669 2484 
Q 3125 2378 3379 2068 
Q 3634 1759 3634 1313 
Q 3634 634 3220 271 
Q 2806 -91 2034 -91 
Q 1263 -91 848 271 
Q 434 634 434 1313 
Q 434 1759 690 2068 
Q 947 2378 1403 2484 
z
M 1172 3481 
Q 1172 3119 1398 2916 
Q 1625 2713 2034 2713 
Q 2441 2713 2670 2916 
Q 2900 3119 2900 3481 
Q 2900 3844 2670 4047 
Q 2441 4250 2034 4250 
Q 1625 4250 1398 4047 
Q 1172 3844 1172 3481 
z
" transform="scale(0.015625)"/>
       </defs>
       <use xlink:href="#DejaVuSans-38"/>
       <use xlink:href="#DejaVuSans-30" transform="translate(63.623047 0)"/>
      </g>
     </g>
    </g>
    <g id="xtick_7">
     <g id="line2d_7">
      <g>
       <use xlink:href="#m31deff6372" x="344.955077" y="288.430125" style="stroke: #000000; stroke-width: 0.8"/>
      </g>
     </g>
     <g id="text_7">
      <!-- 90 -->
      <g transform="translate(338.592577 303.028562) scale(0.1 -0.1)">
       <defs>
        <path id="DejaVuSans-39" d="M 703 97 
L 703 672 
Q 941 559 1184 500 
Q 1428 441 1663 441 
Q 2288 441 2617 861 
Q 2947 1281 2994 2138 
Q 2813 1869 2534 1725 
Q 2256 1581 1919 1581 
Q 1219 1581 811 2004 
Q 403 2428 403 3163 
Q 403 3881 828 4315 
Q 1253 4750 1959 4750 
Q 2769 4750 3195 4129 
Q 3622 3509 3622 2328 
Q 3622 1225 3098 567 
Q 2575 -91 1691 -91 
Q 1453 -91 1209 -44 
Q 966 3 703 97 
z
M 1959 2075 
Q 2384 2075 2632 2365 
Q 2881 2656 2881 3163 
Q 2881 3666 2632 3958 
Q 2384 4250 1959 4250 
Q 1534 4250 1286 3958 
Q 1038 3666 1038 3163 
Q 1038 2656 1286 2365 
Q 1534 2075 1959 2075 
z
" transform="scale(0.015625)"/>
       </defs>
       <use xlink:href="#DejaVuSans-39"/>
       <use xlink:href="#DejaVuSans-30" transform="translate(63.623047 0)"/>
      </g>
     </g>
    </g>
    <g id="xtick_8">
     <g id="line2d_8">
      <g>
       <use xlink:href="#m31deff6372" x="393.340463" y="288.430125" style="stroke: #000000; stroke-width: 0.8"/>
      </g>
     </g>
     <g id="text_8">
      <!-- 100 -->
      <g transform="translate(383.796713 303.028562) scale(0.1 -0.1)">
       <defs>
        <path id="DejaVuSans-31" d="M 794 531 
L 1825 531 
L 1825 4091 
L 703 3866 
L 703 4441 
L 1819 4666 
L 2450 4666 
L 2450 531 
L 3481 531 
L 3481 0 
L 794 0 
L 794 531 
z
" transform="scale(0.015625)"/>
       </defs>
       <use xlink:href="#DejaVuSans-31"/>
       <use xlink:href="#DejaVuSans-30" transform="translate(63.623047 0)"/>
       <use xlink:href="#DejaVuSans-30" transform="translate(127.246094 0)"/>
      </g>
     </g>
    </g>
    <g id="text_9">
     <!-- Predicted Reading Score -->
     <g transform="translate(166.595938 316.706687) scale(0.1 -0.1)">
      <defs>
       <path id="DejaVuSans-50" d="M 1259 4147 
L 1259 2394 
L 2053 2394 
Q 2494 2394 2734 2622 
Q 2975 2850 2975 3272 
Q 2975 3691 2734 3919 
Q 2494 4147 2053 4147 
L 1259 4147 
z
M 628 4666 
L 2053 4666 
Q 2838 4666 3239 4311 
Q 3641 3956 3641 3272 
Q 3641 2581 3239 2228 
Q 2838 1875 2053 1875 
L 1259 1875 
L 1259 0 
L 628 0 
L 628 4666 
z
" transform="scale(0.015625)"/>
       <path id="DejaVuSans-72" d="M 2631 2963 
Q 2534 3019 2420 3045 
Q 2306 3072 2169 3072 
Q 1681 3072 1420 2755 
Q 1159 2438 1159 1844 
L 1159 0 
L 581 0 
L 581 3500 
L 1159 3500 
L 1159 2956 
Q 1341 3275 1631 3429 
Q 1922 3584 2338 3584 
Q 2397 3584 2469 3576 
Q 2541 3569 2628 3553 
L 2631 2963 
z
" transform="scale(0.015625)"/>
       <path id="DejaVuSans-65" d="M 3597 1894 
L 3597 1613 
L 953 1613 
Q 991 1019 1311 708 
Q 1631 397 2203 397 
Q 2534 397 2845 478 
Q 3156 559 3463 722 
L 3463 178 
Q 3153 47 2828 -22 
Q 2503 -91 2169 -91 
Q 1331 -91 842 396 
Q 353 884 353 1716 
Q 353 2575 817 3079 
Q 1281 3584 2069 3584 
Q 2775 3584 3186 3129 
Q 3597 2675 3597 1894 
z
M 3022 2063 
Q 3016 2534 2758 2815 
Q 2500 3097 2075 3097 
Q 1594 3097 1305 2825 
Q 1016 2553 972 2059 
L 3022 2063 
z
" transform="scale(0.015625)"/>
       <path id="DejaVuSans-64" d="M 2906 2969 
L 2906 4863 
L 3481 4863 
L 3481 0 
L 2906 0 
L 2906 525 
Q 2725 213 2448 61 
Q 2172 -91 1784 -91 
Q 1150 -91 751 415 
Q 353 922 353 1747 
Q 353 2572 751 3078 
Q 1150 3584 1784 3584 
Q 2172 3584 2448 3432 
Q 2725 3281 2906 2969 
z
M 947 1747 
Q 947 1113 1208 752 
Q 1469 391 1925 391 
Q 2381 391 2643 752 
Q 2906 1113 2906 1747 
Q 2906 2381 2643 2742 
Q 2381 3103 1925 3103 
Q 1469 3103 1208 2742 
Q 947 2381 947 1747 
z
" transform="scale(0.015625)"/>
       <path id="DejaVuSans-69" d="M 603 3500 
L 1178 3500 
L 1178 0 
L 603 0 
L 603 3500 
z
M 603 4863 
L 1178 4863 
L 1178 4134 
L 603 4134 
L 603 4863 
z
" transform="scale(0.015625)"/>
       <path id="DejaVuSans-63" d="M 3122 3366 
L 3122 2828 
Q 2878 2963 2633 3030 
Q 2388 3097 2138 3097 
Q 1578 3097 1268 2742 
Q 959 2388 959 1747 
Q 959 1106 1268 751 
Q 1578 397 2138 397 
Q 2388 397 2633 464 
Q 2878 531 3122 666 
L 3122 134 
Q 2881 22 2623 -34 
Q 2366 -91 2075 -91 
Q 1284 -91 818 406 
Q 353 903 353 1747 
Q 353 2603 823 3093 
Q 1294 3584 2113 3584 
Q 2378 3584 2631 3529 
Q 2884 3475 3122 3366 
z
" transform="scale(0.015625)"/>
       <path id="DejaVuSans-74" d="M 1172 4494 
L 1172 3500 
L 2356 3500 
L 2356 3053 
L 1172 3053 
L 1172 1153 
Q 1172 725 1289 603 
Q 1406 481 1766 481 
L 2356 481 
L 2356 0 
L 1766 0 
Q 1100 0 847 248 
Q 594 497 594 1153 
L 594 3053 
L 172 3053 
L 172 3500 
L 594 3500 
L 594 4494 
L 1172 4494 
z
" transform="scale(0.015625)"/>
       <path id="DejaVuSans-20" transform="scale(0.015625)"/>
       <path id="DejaVuSans-52" d="M 2841 2188 
Q 3044 2119 3236 1894 
Q 3428 1669 3622 1275 
L 4263 0 
L 3584 0 
L 2988 1197 
Q 2756 1666 2539 1819 
Q 2322 1972 1947 1972 
L 1259 1972 
L 1259 0 
L 628 0 
L 628 4666 
L 2053 4666 
Q 2853 4666 3247 4331 
Q 3641 3997 3641 3322 
Q 3641 2881 3436 2590 
Q 3231 2300 2841 2188 
z
M 1259 4147 
L 1259 2491 
L 2053 2491 
Q 2509 2491 2742 2702 
Q 2975 2913 2975 3322 
Q 2975 3731 2742 3939 
Q 2509 4147 2053 4147 
L 1259 4147 
z
" transform="scale(0.015625)"/>
       <path id="DejaVuSans-61" d="M 2194 1759 
Q 1497 1759 1228 1600 
Q 959 1441 959 1056 
Q 959 750 1161 570 
Q 1363 391 1709 391 
Q 2188 391 2477 730 
Q 2766 1069 2766 1631 
L 2766 1759 
L 2194 1759 
z
M 3341 1997 
L 3341 0 
L 2766 0 
L 2766 531 
Q 2569 213 2275 61 
Q 1981 -91 1556 -91 
Q 1019 -91 701 211 
Q 384 513 384 1019 
Q 384 1609 779 1909 
Q 1175 2209 1959 2209 
L 2766 2209 
L 2766 2266 
Q 2766 2663 2505 2880 
Q 2244 3097 1772 3097 
Q 1472 3097 1187 3025 
Q 903 2953 641 2809 
L 641 3341 
Q 956 3463 1253 3523 
Q 1550 3584 1831 3584 
Q 2591 3584 2966 3190 
Q 3341 2797 3341 1997 
z
" transform="scale(0.015625)"/>
       <path id="DejaVuSans-6e" d="M 3513 2113 
L 3513 0 
L 2938 0 
L 2938 2094 
Q 2938 2591 2744 2837 
Q 2550 3084 2163 3084 
Q 1697 3084 1428 2787 
Q 1159 2491 1159 1978 
L 1159 0 
L 581 0 
L 581 3500 
L 1159 3500 
L 1159 2956 
Q 1366 3272 1645 3428 
Q 1925 3584 2291 3584 
Q 2894 3584 3203 3211 
Q 3513 2838 3513 2113 
z
" transform="scale(0.015625)"/>
       <path id="DejaVuSans-67" d="M 2906 1791 
Q 2906 2416 2648 2759 
Q 2391 3103 1925 3103 
Q 1463 3103 1205 2759 
Q 947 2416 947 1791 
Q 947 1169 1205 825 
Q 1463 481 1925 481 
Q 2391 481 2648 825 
Q 2906 1169 2906 1791 
z
M 3481 434 
Q 3481 -459 3084 -895 
Q 2688 -1331 1869 -1331 
Q 1566 -1331 1297 -1286 
Q 1028 -1241 775 -1147 
L 775 -588 
Q 1028 -725 1275 -790 
Q 1522 -856 1778 -856 
Q 2344 -856 2625 -561 
Q 2906 -266 2906 331 
L 2906 616 
Q 2728 306 2450 153 
Q 2172 0 1784 0 
Q 1141 0 747 490 
Q 353 981 353 1791 
Q 353 2603 747 3093 
Q 1141 3584 1784 3584 
Q 2172 3584 2450 3431 
Q 2728 3278 2906 2969 
L 2906 3500 
L 3481 3500 
L 3481 434 
z
" transform="scale(0.015625)"/>
       <path id="DejaVuSans-53" d="M 3425 4513 
L 3425 3897 
Q 3066 4069 2747 4153 
Q 2428 4238 2131 4238 
Q 1616 4238 1336 4038 
Q 1056 3838 1056 3469 
Q 1056 3159 1242 3001 
Q 1428 2844 1947 2747 
L 2328 2669 
Q 3034 2534 3370 2195 
Q 3706 1856 3706 1288 
Q 3706 609 3251 259 
Q 2797 -91 1919 -91 
Q 1588 -91 1214 -16 
Q 841 59 441 206 
L 441 856 
Q 825 641 1194 531 
Q 1563 422 1919 422 
Q 2459 422 2753 634 
Q 3047 847 3047 1241 
Q 3047 1584 2836 1778 
Q 2625 1972 2144 2069 
L 1759 2144 
Q 1053 2284 737 2584 
Q 422 2884 422 3419 
Q 422 4038 858 4394 
Q 1294 4750 2059 4750 
Q 2388 4750 2728 4690 
Q 3069 4631 3425 4513 
z
" transform="scale(0.015625)"/>
       <path id="DejaVuSans-6f" d="M 1959 3097 
Q 1497 3097 1228 2736 
Q 959 2375 959 1747 
Q 959 1119 1226 758 
Q 1494 397 1959 397 
Q 2419 397 2687 759 
Q 2956 1122 2956 1747 
Q 2956 2369 2687 2733 
Q 2419 3097 1959 3097 
z
M 1959 3584 
Q 2709 3584 3137 3096 
Q 3566 2609 3566 1747 
Q 3566 888 3137 398 
Q 2709 -91 1959 -91 
Q 1206 -91 779 398 
Q 353 888 353 1747 
Q 353 2609 779 3096 
Q 1206 3584 1959 3584 
z
" transform="scale(0.015625)"/>
      </defs>
      <use xlink:href="#DejaVuSans-50"/>
      <use xlink:href="#DejaVuSans-72" transform="translate(58.552734 0)"/>
      <use xlink:href="#DejaVuSans-65" transform="translate(97.416016 0)"/>
      <use xlink:href="#DejaVuSans-64" transform="translate(158.939453 0)"/>
      <use xlink:href="#DejaVuSans-69" transform="translate(222.416016 0)"/>
      <use xlink:href="#DejaVuSans-63" transform="translate(250.199219 0)"/>
      <use xlink:href="#DejaVuSans-74" transform="translate(305.179688 0)"/>
      <use xlink:href="#DejaVuSans-65" transform="translate(344.388672 0)"/>
      <use xlink:href="#DejaVuSans-64" transform="translate(405.912109 0)"/>
      <use xlink:href="#DejaVuSans-20" transform="translate(469.388672 0)"/>
      <use xlink:href="#DejaVuSans-52" transform="translate(501.175781 0)"/>
      <use xlink:href="#DejaVuSans-65" transform="translate(566.158203 0)"/>
      <use xlink:href="#DejaVuSans-61" transform="translate(627.681641 0)"/>
      <use xlink:href="#DejaVuSans-64" transform="translate(688.960938 0)"/>
      <use xlink:href="#DejaVuSans-69" transform="translate(752.4375 0)"/>
      <use xlink:href="#DejaVuSans-6e" transform="translate(780.220703 0)"/>
      <use xlink:href="#DejaVuSans-67" transform="translate(843.599609 0)"/>
      <use xlink:href="#DejaVuSans-20" transform="translate(907.076172 0)"/>
      <use xlink:href="#DejaVuSans-53" transform="translate(938.863281 0)"/>
      <use xlink:href="#DejaVuSans-63" transform="translate(1002.339844 0)"/>
      <use xlink:href="#DejaVuSans-6f" transform="translate(1057.320312 0)"/>
      <use xlink:href="#DejaVuSans-72" transform="translate(1118.501953 0)"/>
      <use xlink:href="#DejaVuSans-65" transform="translate(1157.365234 0)"/>
     </g>
    </g>
   </g>
   <g id="matplotlib.axis_2">
    <g id="ytick_1">
     <g id="line2d_9">
      <defs>
       <path id="m4fa328b593" d="M 0 0 
L -3.5 0 
" style="stroke: #000000; stroke-width: 0.8"/>
      </defs>
      <g>
       <use xlink:href="#m4fa328b593" x="48.982813" y="262.520083" style="stroke: #000000; stroke-width: 0.8"/>
      </g>
     </g>
     <g id="text_10">
      <!-- −10 -->
      <g transform="translate(20.878125 266.319302) scale(0.1 -0.1)">
       <defs>
        <path id="DejaVuSans-2212" d="M 678 2272 
L 4684 2272 
L 4684 1741 
L 678 1741 
L 678 2272 
z
" transform="scale(0.015625)"/>
       </defs>
       <use xlink:href="#DejaVuSans-2212"/>
       <use xlink:href="#DejaVuSans-31" transform="translate(83.789062 0)"/>
       <use xlink:href="#DejaVuSans-30" transform="translate(147.412109 0)"/>
      </g>
     </g>
    </g>
    <g id="ytick_2">
     <g id="line2d_10">
      <g>
       <use xlink:href="#m4fa328b593" x="48.982813" y="207.998587" style="stroke: #000000; stroke-width: 0.8"/>
      </g>
     </g>
     <g id="text_11">
      <!-- −5 -->
      <g transform="translate(27.240625 211.797805) scale(0.1 -0.1)">
       <use xlink:href="#DejaVuSans-2212"/>
       <use xlink:href="#DejaVuSans-35" transform="translate(83.789062 0)"/>
      </g>
     </g>
    </g>
    <g id="ytick_3">
     <g id="line2d_11">
      <g>
       <use xlink:href="#m4fa328b593" x="48.982813" y="153.47709" style="stroke: #000000; stroke-width: 0.8"/>
      </g>
     </g>
     <g id="text_12">
      <!-- 0 -->
      <g transform="translate(35.620313 157.276309) scale(0.1 -0.1)">
       <use xlink:href="#DejaVuSans-30"/>
      </g>
     </g>
    </g>
    <g id="ytick_4">
     <g id="line2d_12">
      <g>
       <use xlink:href="#m4fa328b593" x="48.982813" y="98.955593" style="stroke: #000000; stroke-width: 0.8"/>
      </g>
     </g>
     <g id="text_13">
      <!-- 5 -->
      <g transform="translate(35.620313 102.754812) scale(0.1 -0.1)">
       <use xlink:href="#DejaVuSans-35"/>
      </g>
     </g>
    </g>
    <g id="ytick_5">
     <g id="line2d_13">
      <g>
       <use xlink:href="#m4fa328b593" x="48.982813" y="44.434097" style="stroke: #000000; stroke-width: 0.8"/>
      </g>
     </g>
     <g id="text_14">
      <!-- 10 -->
      <g transform="translate(29.257813 48.233315) scale(0.1 -0.1)">
       <use xlink:href="#DejaVuSans-31"/>
       <use xlink:href="#DejaVuSans-30" transform="translate(63.623047 0)"/>
      </g>
     </g>
    </g>
    <g id="text_15">
     <!-- Residuals -->
     <g transform="translate(14.798438 179.094437) rotate(-90) scale(0.1 -0.1)">
      <defs>
       <path id="DejaVuSans-73" d="M 2834 3397 
L 2834 2853 
Q 2591 2978 2328 3040 
Q 2066 3103 1784 3103 
Q 1356 3103 1142 2972 
Q 928 2841 928 2578 
Q 928 2378 1081 2264 
Q 1234 2150 1697 2047 
L 1894 2003 
Q 2506 1872 2764 1633 
Q 3022 1394 3022 966 
Q 3022 478 2636 193 
Q 2250 -91 1575 -91 
Q 1294 -91 989 -36 
Q 684 19 347 128 
L 347 722 
Q 666 556 975 473 
Q 1284 391 1588 391 
Q 1994 391 2212 530 
Q 2431 669 2431 922 
Q 2431 1156 2273 1281 
Q 2116 1406 1581 1522 
L 1381 1569 
Q 847 1681 609 1914 
Q 372 2147 372 2553 
Q 372 3047 722 3315 
Q 1072 3584 1716 3584 
Q 2034 3584 2315 3537 
Q 2597 3491 2834 3397 
z
" transform="scale(0.015625)"/>
       <path id="DejaVuSans-75" d="M 544 1381 
L 544 3500 
L 1119 3500 
L 1119 1403 
Q 1119 906 1312 657 
Q 1506 409 1894 409 
Q 2359 409 2629 706 
Q 2900 1003 2900 1516 
L 2900 3500 
L 3475 3500 
L 3475 0 
L 2900 0 
L 2900 538 
Q 2691 219 2414 64 
Q 2138 -91 1772 -91 
Q 1169 -91 856 284 
Q 544 659 544 1381 
z
M 1991 3584 
L 1991 3584 
z
" transform="scale(0.015625)"/>
       <path id="DejaVuSans-6c" d="M 603 4863 
L 1178 4863 
L 1178 0 
L 603 0 
L 603 4863 
z
" transform="scale(0.015625)"/>
      </defs>
      <use xlink:href="#DejaVuSans-52"/>
      <use xlink:href="#DejaVuSans-65" transform="translate(64.982422 0)"/>
      <use xlink:href="#DejaVuSans-73" transform="translate(126.505859 0)"/>
      <use xlink:href="#DejaVuSans-69" transform="translate(178.605469 0)"/>
      <use xlink:href="#DejaVuSans-64" transform="translate(206.388672 0)"/>
      <use xlink:href="#DejaVuSans-75" transform="translate(269.865234 0)"/>
      <use xlink:href="#DejaVuSans-61" transform="translate(333.244141 0)"/>
      <use xlink:href="#DejaVuSans-6c" transform="translate(394.523438 0)"/>
      <use xlink:href="#DejaVuSans-73" transform="translate(422.306641 0)"/>
     </g>
    </g>
   </g>
   <g id="line2d_14">
    <path d="M 48.982813 153.47709 
L 406.102813 153.47709 
" clip-path="url(#p0812795175)" style="fill: none; stroke: #1f77b4; stroke-width: 1.5; stroke-linecap: square"/>
   </g>
   <g id="patch_3">
    <path d="M 48.982813 288.430125 
L 48.982813 22.318125 
" style="fill: none; stroke: #000000; stroke-width: 0.8; stroke-linejoin: miter; stroke-linecap: square"/>
   </g>
   <g id="patch_4">
    <path d="M 406.102813 288.430125 
L 406.102813 22.318125 
" style="fill: none; stroke: #000000; stroke-width: 0.8; stroke-linejoin: miter; stroke-linecap: square"/>
   </g>
   <g id="patch_5">
    <path d="M 48.982812 288.430125 
L 406.102812 288.430125 
" style="fill: none; stroke: #000000; stroke-width: 0.8; stroke-linejoin: miter; stroke-linecap: square"/>
   </g>
   <g id="patch_6">
    <path d="M 48.982812 22.318125 
L 406.102812 22.318125 
" style="fill: none; stroke: #000000; stroke-width: 0.8; stroke-linejoin: miter; stroke-linecap: square"/>
   </g>
   <g id="text_16">
    <!-- Residual Chart -->
    <g transform="translate(183.809375 16.318125) scale(0.12 -0.12)">
     <defs>
      <path id="DejaVuSans-43" d="M 4122 4306 
L 4122 3641 
Q 3803 3938 3442 4084 
Q 3081 4231 2675 4231 
Q 1875 4231 1450 3742 
Q 1025 3253 1025 2328 
Q 1025 1406 1450 917 
Q 1875 428 2675 428 
Q 3081 428 3442 575 
Q 3803 722 4122 1019 
L 4122 359 
Q 3791 134 3420 21 
Q 3050 -91 2638 -91 
Q 1578 -91 968 557 
Q 359 1206 359 2328 
Q 359 3453 968 4101 
Q 1578 4750 2638 4750 
Q 3056 4750 3426 4639 
Q 3797 4528 4122 4306 
z
" transform="scale(0.015625)"/>
      <path id="DejaVuSans-68" d="M 3513 2113 
L 3513 0 
L 2938 0 
L 2938 2094 
Q 2938 2591 2744 2837 
Q 2550 3084 2163 3084 
Q 1697 3084 1428 2787 
Q 1159 2491 1159 1978 
L 1159 0 
L 581 0 
L 581 4863 
L 1159 4863 
L 1159 2956 
Q 1366 3272 1645 3428 
Q 1925 3584 2291 3584 
Q 2894 3584 3203 3211 
Q 3513 2838 3513 2113 
z
" transform="scale(0.015625)"/>
     </defs>
     <use xlink:href="#DejaVuSans-52"/>
     <use xlink:href="#DejaVuSans-65" transform="translate(64.982422 0)"/>
     <use xlink:href="#DejaVuSans-73" transform="translate(126.505859 0)"/>
     <use xlink:href="#DejaVuSans-69" transform="translate(178.605469 0)"/>
     <use xlink:href="#DejaVuSans-64" transform="translate(206.388672 0)"/>
     <use xlink:href="#DejaVuSans-75" transform="translate(269.865234 0)"/>
     <use xlink:href="#DejaVuSans-61" transform="translate(333.244141 0)"/>
     <use xlink:href="#DejaVuSans-6c" transform="translate(394.523438 0)"/>
     <use xlink:href="#DejaVuSans-20" transform="translate(422.306641 0)"/>
     <use xlink:href="#DejaVuSans-43" transform="translate(454.09375 0)"/>
     <use xlink:href="#DejaVuSans-68" transform="translate(523.917969 0)"/>
     <use xlink:href="#DejaVuSans-61" transform="translate(587.296875 0)"/>
     <use xlink:href="#DejaVuSans-72" transform="translate(648.576172 0)"/>
     <use xlink:href="#DejaVuSans-74" transform="translate(689.689453 0)"/>
    </g>
   </g>
  </g>
 </g>
 <defs>
  <clipPath id="p0812795175">
   <rect x="48.982813" y="22.318125" width="357.12" height="266.112"/>
  </clipPath>
 </defs>
</svg>
